<?xml version="1.0" encoding="utf-8"?>
<!-- Generator: Adobe Illustrator 16.0.4, SVG Export Plug-In . SVG Version: 6.00 Build 0)  -->
<!DOCTYPE svg PUBLIC "-//W3C//DTD SVG 1.1//EN" "http://www.w3.org/Graphics/SVG/1.1/DTD/svg11.dtd">
<svg version="1.1" id="Layer_1" xmlns="http://www.w3.org/2000/svg" xmlns:xlink="http://www.w3.org/1999/xlink" x="0px" y="0px"
	 width="50px" height="50px" viewBox="0 0 50 50" enable-background="new 0 0 50 50" xml:space="preserve">
<g>
	<defs>
		<polyline id="SVGID_1_" points="214.96,-206.668 -397.04,-206.668 -397.04,-998.668 214.96,-998.668 		"/>
	</defs>
	<clipPath id="SVGID_2_">
		<use xlink:href="#SVGID_1_"  overflow="visible"/>
	</clipPath>
	<path clip-path="url(#SVGID_2_)" fill="#F05641" d="M-329.101-922.469c0,9.291-7.532,16.823-16.823,16.823
		s-16.823-7.532-16.823-16.823s7.532-16.823,16.823-16.823S-329.101-931.76-329.101-922.469"/>
	<path clip-path="url(#SVGID_2_)" fill="#3A383A" d="M-317.913-930.036c-1.092,0-2.007-0.88-2.007-1.972
		c0-1.091,0.915-2.007,2.007-2.007c1.092,0,1.972,0.916,1.972,2.007C-315.941-930.916-316.821-930.036-317.913-930.036
		 M-319.498-927.915h3.134v16.798h-3.134V-927.915z"/>
	<path clip-path="url(#SVGID_2_)" fill="#3A383A" d="M-302.736-911.117v-11.445c0-1.726-0.74-2.888-2.571-2.888
		c-1.655,0-3.345,1.092-4.86,2.712v11.621h-3.134v-16.798h2.888v2.43c1.585-1.444,3.557-2.782,5.951-2.782
		c3.17,0,4.86,1.902,4.86,4.93v12.22H-302.736z"/>
	<path clip-path="url(#SVGID_2_)" fill="#3A383A" d="M-285.448-904.567v-8.487c-1.127,1.127-2.747,2.289-5.036,2.289
		c-3.627,0-6.621-2.641-6.621-8.276c0-6.127,3.381-9.085,8.241-9.085c2.536,0,4.331,0.387,6.55,1.056v22.045L-285.448-904.567z
		 M-285.448-924.851c-1.057-0.387-1.831-0.599-3.381-0.599c-3.275,0-5.106,1.972-5.106,6.27c0,3.697,1.655,5.634,3.909,5.634
		c1.761,0,3.31-1.162,4.578-2.747V-924.851z"/>
	<path clip-path="url(#SVGID_2_)" fill="#3A383A" d="M-268.773-911.117l0.015-2.43c-1.585,1.479-3.592,2.782-5.952,2.782
		c-3.204,0-4.86-1.902-4.86-4.93v-12.22h3.135v11.445c0,1.726,0.739,2.888,2.57,2.888c1.655,0,3.346-1.092,4.86-2.712v-11.621h3.134
		v16.798H-268.773z"/>
	<path clip-path="url(#SVGID_2_)" fill="#3A383A" d="M-261.224-930.036c-1.092,0-2.007-0.88-2.007-1.972
		c0-1.091,0.915-2.007,2.007-2.007c1.092,0,1.972,0.916,1.972,2.007C-259.252-930.916-260.132-930.036-261.224-930.036
		 M-262.809-927.915h3.134v16.798h-3.134V-927.915z"/>
	<path clip-path="url(#SVGID_2_)" fill="#3A383A" d="M-253.478-920.696v9.579h-3.134v-16.798h3.028v3.768
		c1.198-1.902,3.432-3.768,6.374-3.768v2.993C-249.992-924.781-252.351-922.915-253.478-920.696"/>
	<path clip-path="url(#SVGID_2_)" fill="#3A383A" d="M-242.905-930.036c-1.092,0-2.007-0.88-2.007-1.972
		c0-1.091,0.915-2.007,2.007-2.007c1.092,0,1.972,0.916,1.972,2.007C-240.933-930.916-241.813-930.036-242.905-930.036
		 M-244.49-927.915h3.134v16.798h-3.134V-927.915z"/>
	<path clip-path="url(#SVGID_2_)" fill="#FFFFFF" d="M-345.218-930.277c0.992,0,1.793-0.8,1.793-1.793
		c0-0.992-0.801-1.824-1.793-1.824c-0.993,0-1.825,0.832-1.825,1.824C-347.043-931.077-346.211-930.277-345.218-930.277"/>
	<path clip-path="url(#SVGID_2_)" fill="none" stroke="#FFFFFF" stroke-width="0.5" stroke-miterlimit="10" d="M-345.218-930.277
		c0.992,0,1.793-0.8,1.793-1.793c0-0.992-0.801-1.824-1.793-1.824c-0.993,0-1.825,0.832-1.825,1.824
		C-347.043-931.077-346.211-930.277-345.218-930.277z"/>
	<path clip-path="url(#SVGID_2_)" fill="#FFFFFF" d="M-346.517-923.791v-3.878h2.572l-0.011,5.575l-1.312,0.545
		c-3.01,1.248-4.354,2.272-4.354,4.321c0,1.953,1.568,3.073,3.714,3.073c2.496,0,4.481-1.12,6.274-2.593l0.416,2.946
		c-1.952,1.44-4.225,2.368-6.851,2.368c-3.905,0-6.563-2.176-6.563-5.666C-352.631-920.557-350.326-922.062-346.517-923.791"/>
	<path clip-path="url(#SVGID_2_)" fill="none" stroke="#FFFFFF" stroke-width="0.5" stroke-miterlimit="10" d="M-346.517-923.791
		v-3.878h2.572l-0.011,5.575l-1.312,0.545c-3.01,1.248-4.354,2.272-4.354,4.321c0,1.953,1.568,3.073,3.714,3.073
		c2.496,0,4.481-1.12,6.274-2.593l0.416,2.946c-1.952,1.44-4.225,2.368-6.851,2.368c-3.905,0-6.563-2.176-6.563-5.666
		C-352.631-920.557-350.326-922.062-346.517-923.791z"/>
	<path clip-path="url(#SVGID_2_)" fill="#F89823" d="M-329.101-866.347c0,9.291-7.532,16.823-16.823,16.823
		s-16.823-7.532-16.823-16.823s7.532-16.823,16.823-16.823S-329.101-875.638-329.101-866.347"/>
	<path clip-path="url(#SVGID_2_)" fill="#3A383A" d="M-317.913-874.166c-1.092,0-2.007-0.881-2.007-1.972
		c0-1.092,0.915-2.008,2.007-2.008c1.092,0,1.972,0.916,1.972,2.008C-315.941-875.047-316.821-874.166-317.913-874.166
		 M-319.498-871.794h3.134v16.798h-3.134V-871.794z"/>
	<path clip-path="url(#SVGID_2_)" fill="#3A383A" d="M-302.736-854.996v-11.445c0-1.726-0.74-2.888-2.571-2.888
		c-1.655,0-3.345,1.092-4.86,2.712v11.621h-3.134v-16.798h2.888v2.43c1.585-1.444,3.557-2.782,5.951-2.782
		c3.17,0,4.86,1.902,4.86,4.93v12.22H-302.736z"/>
	<path clip-path="url(#SVGID_2_)" fill="#3A383A" d="M-285.448-848.445v-8.487c-1.127,1.127-2.747,2.289-5.036,2.289
		c-3.627,0-6.621-2.641-6.621-8.276c0-6.127,3.381-9.085,8.241-9.085c2.536,0,4.331,0.387,6.55,1.056v22.045L-285.448-848.445z
		 M-285.448-868.729c-1.057-0.387-1.831-0.599-3.381-0.599c-3.275,0-5.106,1.972-5.106,6.269c0,3.697,1.655,5.634,3.909,5.634
		c1.761,0,3.31-1.162,4.578-2.747V-868.729z"/>
	<path clip-path="url(#SVGID_2_)" fill="#3A383A" d="M-268.773-854.996l0.015-2.43c-1.585,1.479-3.592,2.782-5.952,2.782
		c-3.204,0-4.86-1.902-4.86-4.93v-12.22h3.135v11.445c0,1.726,0.739,2.888,2.57,2.888c1.655,0,3.346-1.092,4.86-2.712v-11.621h3.134
		v16.798H-268.773z"/>
	<path clip-path="url(#SVGID_2_)" fill="#3A383A" d="M-261.224-874.166c-1.092,0-2.007-0.881-2.007-1.972
		c0-1.092,0.915-2.008,2.007-2.008c1.092,0,1.972,0.916,1.972,2.008C-259.252-875.047-260.132-874.166-261.224-874.166
		 M-262.809-871.794h3.134v16.798h-3.134V-871.794z"/>
	<path clip-path="url(#SVGID_2_)" fill="#3A383A" d="M-253.478-864.574v9.579h-3.134v-16.798h3.028v3.768
		c1.198-1.902,3.432-3.768,6.374-3.768v2.993C-249.992-868.659-252.351-866.793-253.478-864.574"/>
	<path clip-path="url(#SVGID_2_)" fill="#3A383A" d="M-242.905-874.166c-1.092,0-2.007-0.881-2.007-1.972
		c0-1.092,0.915-2.008,2.007-2.008c1.092,0,1.972,0.916,1.972,2.008C-240.933-875.047-241.813-874.166-242.905-874.166
		 M-244.49-871.794h3.134v16.798h-3.134V-871.794z"/>
	<path clip-path="url(#SVGID_2_)" fill="#FFFFFF" d="M-345.218-874.156c0.992,0,1.793-0.8,1.793-1.793
		c0-0.992-0.801-1.824-1.793-1.824c-0.993,0-1.825,0.832-1.825,1.824C-347.043-874.956-346.211-874.156-345.218-874.156"/>
	<path clip-path="url(#SVGID_2_)" fill="none" stroke="#FFFFFF" stroke-width="0.5" stroke-miterlimit="10" d="M-345.218-874.156
		c0.992,0,1.793-0.8,1.793-1.793c0-0.992-0.801-1.824-1.793-1.824c-0.993,0-1.825,0.832-1.825,1.824
		C-347.043-874.956-346.211-874.156-345.218-874.156z"/>
	<path clip-path="url(#SVGID_2_)" fill="#FFFFFF" d="M-346.517-867.67v-3.247h2.572l-0.011,4.944l-1.312,0.545
		c-3.01,1.248-4.354,2.272-4.354,4.321c0,1.953,1.568,3.073,3.714,3.073c2.496,0,4.481-1.12,6.274-2.593l0.416,2.946
		c-1.952,1.44-4.225,2.368-6.851,2.368c-3.905,0-6.563-2.176-6.563-5.666C-352.631-864.436-350.326-865.941-346.517-867.67"/>
	<path clip-path="url(#SVGID_2_)" fill="none" stroke="#FFFFFF" stroke-width="0.5" stroke-miterlimit="10" d="M-346.517-867.67
		v-3.247h2.572l-0.011,4.944l-1.312,0.545c-3.01,1.248-4.354,2.272-4.354,4.321c0,1.953,1.568,3.073,3.714,3.073
		c2.496,0,4.481-1.12,6.274-2.593l0.416,2.946c-1.952,1.44-4.225,2.368-6.851,2.368c-3.905,0-6.563-2.176-6.563-5.666
		C-352.631-864.436-350.326-865.941-346.517-867.67z"/>
	<path clip-path="url(#SVGID_2_)" fill="#167FAA" d="M-329.101-808.785c0,9.291-7.532,16.823-16.823,16.823
		s-16.823-7.532-16.823-16.823s7.532-16.823,16.823-16.823S-329.101-818.076-329.101-808.785"/>
	<path clip-path="url(#SVGID_2_)" fill="#3A383A" d="M-317.913-816.604c-1.092,0-2.007-0.88-2.007-1.972
		c0-1.091,0.915-2.007,2.007-2.007c1.092,0,1.972,0.916,1.972,2.007C-315.941-817.484-316.821-816.604-317.913-816.604
		 M-319.498-814.231h3.134v16.798h-3.134V-814.231z"/>
	<path clip-path="url(#SVGID_2_)" fill="#3A383A" d="M-302.736-797.433v-11.445c0-1.726-0.74-2.888-2.571-2.888
		c-1.655,0-3.345,1.092-4.86,2.712v11.621h-3.134v-16.798h2.888v2.43c1.585-1.444,3.557-2.782,5.951-2.782
		c3.17,0,4.86,1.902,4.86,4.93v12.22H-302.736z"/>
	<path clip-path="url(#SVGID_2_)" fill="#3A383A" d="M-285.448-790.883v-8.487c-1.127,1.127-2.747,2.289-5.036,2.289
		c-3.627,0-6.621-2.641-6.621-8.276c0-6.127,3.381-9.085,8.241-9.085c2.536,0,4.331,0.387,6.55,1.056v22.045L-285.448-790.883z
		 M-285.448-811.167c-1.057-0.387-1.831-0.599-3.381-0.599c-3.275,0-5.106,1.972-5.106,6.268c0,3.698,1.655,5.635,3.909,5.635
		c1.761,0,3.31-1.162,4.578-2.747V-811.167z"/>
	<path clip-path="url(#SVGID_2_)" fill="#3A383A" d="M-268.773-797.433l0.015-2.43c-1.585,1.479-3.592,2.782-5.952,2.782
		c-3.204,0-4.86-1.902-4.86-4.93v-12.22h3.135v11.445c0,1.726,0.739,2.888,2.57,2.888c1.655,0,3.346-1.092,4.86-2.712v-11.621h3.134
		v16.798H-268.773z"/>
	<path clip-path="url(#SVGID_2_)" fill="#3A383A" d="M-261.224-816.604c-1.092,0-2.007-0.88-2.007-1.972
		c0-1.091,0.915-2.007,2.007-2.007c1.092,0,1.972,0.916,1.972,2.007C-259.252-817.484-260.132-816.604-261.224-816.604
		 M-262.809-814.231h3.134v16.798h-3.134V-814.231z"/>
	<path clip-path="url(#SVGID_2_)" fill="#3A383A" d="M-253.478-807.012v9.579h-3.134v-16.798h3.028v3.768
		c1.198-1.902,3.432-3.768,6.374-3.768v2.993C-249.992-811.097-252.351-809.23-253.478-807.012"/>
	<path clip-path="url(#SVGID_2_)" fill="#3A383A" d="M-242.905-816.604c-1.092,0-2.007-0.88-2.007-1.972
		c0-1.091,0.915-2.007,2.007-2.007c1.092,0,1.972,0.916,1.972,2.007C-240.933-817.484-241.813-816.604-242.905-816.604
		 M-244.49-814.231h3.134v16.798h-3.134V-814.231z"/>
	<path clip-path="url(#SVGID_2_)" fill="#FFFFFF" d="M-345.218-816.593c0.992,0,1.793-0.8,1.793-1.793
		c0-0.992-0.801-1.824-1.793-1.824c-0.993,0-1.825,0.832-1.825,1.824C-347.043-817.393-346.211-816.593-345.218-816.593"/>
	<path clip-path="url(#SVGID_2_)" fill="none" stroke="#FFFFFF" stroke-width="0.5" stroke-miterlimit="10" d="M-345.218-816.593
		c0.992,0,1.793-0.8,1.793-1.793c0-0.992-0.801-1.824-1.793-1.824c-0.993,0-1.825,0.832-1.825,1.824
		C-347.043-817.393-346.211-816.593-345.218-816.593z"/>
	<path clip-path="url(#SVGID_2_)" fill="#FFFFFF" d="M-346.517-810.107v-3.247h2.572l-0.011,4.944l-1.312,0.544
		c-3.01,1.249-4.354,2.273-4.354,4.322c0,1.953,1.568,3.073,3.714,3.073c2.496,0,4.481-1.12,6.274-2.593l0.416,2.946
		c-1.952,1.44-4.225,2.368-6.851,2.368c-3.905,0-6.563-2.176-6.563-5.666C-352.631-806.873-350.326-808.378-346.517-810.107"/>
	<path clip-path="url(#SVGID_2_)" fill="none" stroke="#FFFFFF" stroke-width="0.5" stroke-miterlimit="10" d="M-346.517-810.107
		v-3.247h2.572l-0.011,4.944l-1.312,0.544c-3.01,1.249-4.354,2.273-4.354,4.322c0,1.953,1.568,3.073,3.714,3.073
		c2.496,0,4.481-1.12,6.274-2.593l0.416,2.946c-1.952,1.44-4.225,2.368-6.851,2.368c-3.905,0-6.563-2.176-6.563-5.666
		C-352.631-806.873-350.326-808.378-346.517-810.107z"/>
	<path clip-path="url(#SVGID_2_)" fill="#7ED0E1" d="M-50.825-922.469c0,9.291-7.532,16.823-16.823,16.823
		s-16.822-7.532-16.822-16.823s7.531-16.823,16.822-16.823S-50.825-931.76-50.825-922.469"/>
	<path clip-path="url(#SVGID_2_)" fill="#3A383A" d="M-39.637-930.288c-1.093,0-2.007-0.88-2.007-1.972
		c0-1.091,0.914-2.007,2.007-2.007c1.092,0,1.972,0.916,1.972,2.007C-37.665-931.168-38.545-930.288-39.637-930.288
		 M-41.222-927.915h3.134v16.798h-3.134V-927.915z"/>
	<path clip-path="url(#SVGID_2_)" fill="#3A383A" d="M-24.46-911.117v-11.445c0-1.726-0.74-2.888-2.571-2.888
		c-1.655,0-3.345,1.092-4.859,2.712v11.621h-3.135v-16.798h2.889v2.43c1.585-1.444,3.557-2.782,5.952-2.782
		c3.169,0,4.858,1.902,4.858,4.93v12.22H-24.46z"/>
	<path clip-path="url(#SVGID_2_)" fill="#3A383A" d="M-7.172-904.567v-8.487c-1.127,1.127-2.747,2.289-5.036,2.289
		c-3.627,0-6.621-2.641-6.621-8.276c0-6.127,3.381-9.085,8.241-9.085c2.536,0,4.331,0.387,6.55,1.056v22.045L-7.172-904.567z
		 M-7.172-924.851c-1.057-0.387-1.831-0.599-3.381-0.599c-3.275,0-5.106,1.972-5.106,6.27c0,3.697,1.655,5.634,3.909,5.634
		c1.761,0,3.311-1.162,4.578-2.747V-924.851z"/>
	<path clip-path="url(#SVGID_2_)" fill="#3A383A" d="M9.503-911.117l0.016-2.43c-1.585,1.479-3.593,2.782-5.952,2.782
		c-3.204,0-4.86-1.902-4.86-4.93v-12.22h3.135v11.445c0,1.726,0.739,2.888,2.57,2.888c1.655,0,3.346-1.092,4.86-2.712v-11.621h3.134
		v16.798H9.503z"/>
	<path clip-path="url(#SVGID_2_)" fill="#3A383A" d="M17.052-930.288c-1.092,0-2.007-0.88-2.007-1.972
		c0-1.091,0.915-2.007,2.007-2.007c1.091,0,1.973,0.916,1.973,2.007C19.024-931.168,18.143-930.288,17.052-930.288 M15.467-927.915
		h3.134v16.798h-3.134V-927.915z"/>
	<path clip-path="url(#SVGID_2_)" fill="#3A383A" d="M24.798-920.696v9.579h-3.134v-16.798h3.028v3.768
		c1.197-1.902,3.432-3.768,6.374-3.768v2.993C28.284-924.781,25.925-922.915,24.798-920.696"/>
	<path clip-path="url(#SVGID_2_)" fill="#3A383A" d="M35.371-930.288c-1.092,0-2.007-0.88-2.007-1.972
		c0-1.091,0.915-2.007,2.007-2.007s1.972,0.916,1.972,2.007C37.343-931.168,36.463-930.288,35.371-930.288 M33.786-927.915h3.134
		v16.798h-3.134V-927.915z"/>
	<path clip-path="url(#SVGID_2_)" fill="#FFFFFF" d="M-66.942-930.277c0.992,0,1.793-0.8,1.793-1.793
		c0-0.992-0.801-1.824-1.793-1.824c-0.993,0-1.825,0.832-1.825,1.824C-68.768-931.077-67.936-930.277-66.942-930.277"/>
	<path clip-path="url(#SVGID_2_)" fill="none" stroke="#FFFFFF" stroke-width="0.5" stroke-miterlimit="10" d="M-66.942-930.277
		c0.992,0,1.793-0.8,1.793-1.793c0-0.992-0.801-1.824-1.793-1.824c-0.993,0-1.825,0.832-1.825,1.824
		C-68.768-931.077-67.936-930.277-66.942-930.277z"/>
	<path clip-path="url(#SVGID_2_)" fill="#FFFFFF" d="M-68.24-923.791v-3.247h2.571l-0.011,4.944l-1.312,0.545
		c-3.011,1.248-4.354,2.272-4.354,4.321c0,1.953,1.568,3.073,3.714,3.073c2.496,0,4.481-1.12,6.274-2.593l0.416,2.946
		c-1.952,1.44-4.226,2.368-6.852,2.368c-3.904,0-6.562-2.176-6.562-5.666C-74.355-920.557-72.05-922.062-68.24-923.791"/>
	<path clip-path="url(#SVGID_2_)" fill="none" stroke="#FFFFFF" stroke-width="0.5" stroke-miterlimit="10" d="M-68.24-923.791
		v-3.247h2.571l-0.011,4.944l-1.312,0.545c-3.011,1.248-4.354,2.272-4.354,4.321c0,1.953,1.568,3.073,3.714,3.073
		c2.496,0,4.481-1.12,6.274-2.593l0.416,2.946c-1.952,1.44-4.226,2.368-6.852,2.368c-3.904,0-6.562-2.176-6.562-5.666
		C-74.355-920.557-72.05-922.062-68.24-923.791z"/>
	<path clip-path="url(#SVGID_2_)" fill="#5DC4B8" d="M-50.825-866.347c0,9.291-7.532,16.823-16.823,16.823
		s-16.822-7.532-16.822-16.823s7.531-16.823,16.822-16.823S-50.825-875.638-50.825-866.347"/>
	<path clip-path="url(#SVGID_2_)" fill="#3A383A" d="M-39.637-874.166c-1.093,0-2.007-0.881-2.007-1.972
		c0-1.092,0.914-2.008,2.007-2.008c1.092,0,1.972,0.916,1.972,2.008C-37.665-875.047-38.545-874.166-39.637-874.166
		 M-41.222-871.794h3.134v16.798h-3.134V-871.794z"/>
	<path clip-path="url(#SVGID_2_)" fill="#3A383A" d="M-24.46-854.996v-11.445c0-1.726-0.74-2.888-2.571-2.888
		c-1.655,0-3.345,1.092-4.859,2.712v11.621h-3.135v-16.798h2.889v2.43c1.585-1.444,3.557-2.782,5.952-2.782
		c3.169,0,4.858,1.902,4.858,4.93v12.22H-24.46z"/>
	<path clip-path="url(#SVGID_2_)" fill="#3A383A" d="M-7.172-848.445v-8.487c-1.127,1.127-2.747,2.289-5.036,2.289
		c-3.627,0-6.621-2.641-6.621-8.276c0-6.127,3.381-9.085,8.241-9.085c2.536,0,4.331,0.387,6.55,1.056v22.045L-7.172-848.445z
		 M-7.172-868.729c-1.057-0.387-1.831-0.599-3.381-0.599c-3.275,0-5.106,1.972-5.106,6.269c0,3.697,1.655,5.634,3.909,5.634
		c1.761,0,3.311-1.162,4.578-2.747V-868.729z"/>
	<path clip-path="url(#SVGID_2_)" fill="#3A383A" d="M9.503-854.996l0.016-2.43c-1.585,1.479-3.593,2.782-5.952,2.782
		c-3.204,0-4.86-1.902-4.86-4.93v-12.22h3.135v11.445c0,1.726,0.739,2.888,2.57,2.888c1.655,0,3.346-1.092,4.86-2.712v-11.621h3.134
		v16.798H9.503z"/>
	<path clip-path="url(#SVGID_2_)" fill="#3A383A" d="M17.052-874.166c-1.092,0-2.007-0.881-2.007-1.972
		c0-1.092,0.915-2.008,2.007-2.008c1.091,0,1.973,0.916,1.973,2.008C19.024-875.047,18.143-874.166,17.052-874.166 M15.467-871.794
		h3.134v16.798h-3.134V-871.794z"/>
	<path clip-path="url(#SVGID_2_)" fill="#3A383A" d="M24.798-864.574v9.579h-3.134v-16.798h3.028v3.768
		c1.197-1.902,3.432-3.768,6.374-3.768v2.993C28.284-868.659,25.925-866.793,24.798-864.574"/>
	<path clip-path="url(#SVGID_2_)" fill="#3A383A" d="M35.371-874.166c-1.092,0-2.007-0.881-2.007-1.972
		c0-1.092,0.915-2.008,2.007-2.008s1.972,0.916,1.972,2.008C37.343-875.047,36.463-874.166,35.371-874.166 M33.786-871.794h3.134
		v16.798h-3.134V-871.794z"/>
	<path clip-path="url(#SVGID_2_)" fill="#FFFFFF" d="M-66.942-874.156c0.992,0,1.793-0.8,1.793-1.793
		c0-0.992-0.801-1.824-1.793-1.824c-0.993,0-1.825,0.832-1.825,1.824C-68.768-874.956-67.936-874.156-66.942-874.156"/>
	<path clip-path="url(#SVGID_2_)" fill="none" stroke="#FFFFFF" stroke-width="0.5" stroke-miterlimit="10" d="M-66.942-874.156
		c0.992,0,1.793-0.8,1.793-1.793c0-0.992-0.801-1.824-1.793-1.824c-0.993,0-1.825,0.832-1.825,1.824
		C-68.768-874.956-67.936-874.156-66.942-874.156z"/>
	<path clip-path="url(#SVGID_2_)" fill="#FFFFFF" d="M-68.24-867.67v-3.247h2.571l-0.011,4.944l-1.312,0.545
		c-3.011,1.248-4.354,2.272-4.354,4.321c0,1.953,1.568,3.073,3.714,3.073c2.496,0,4.481-1.12,6.274-2.593l0.416,2.946
		c-1.952,1.44-4.226,2.368-6.852,2.368c-3.904,0-6.562-2.176-6.562-5.666C-74.355-864.436-72.05-865.941-68.24-867.67"/>
	<path clip-path="url(#SVGID_2_)" fill="none" stroke="#FFFFFF" stroke-width="0.5" stroke-miterlimit="10" d="M-68.24-867.67
		v-3.247h2.571l-0.011,4.944l-1.312,0.545c-3.011,1.248-4.354,2.272-4.354,4.321c0,1.953,1.568,3.073,3.714,3.073
		c2.496,0,4.481-1.12,6.274-2.593l0.416,2.946c-1.952,1.44-4.226,2.368-6.852,2.368c-3.904,0-6.562-2.176-6.562-5.666
		C-74.355-864.436-72.05-865.941-68.24-867.67z"/>
	<path clip-path="url(#SVGID_2_)" fill="#FFD200" d="M-50.825-808.785c0,9.291-7.532,16.823-16.823,16.823
		s-16.822-7.532-16.822-16.823s7.531-16.823,16.822-16.823S-50.825-818.076-50.825-808.785"/>
	<path clip-path="url(#SVGID_2_)" fill="#3A383A" d="M-39.637-816.604c-1.093,0-2.007-0.88-2.007-1.972
		c0-1.091,0.914-2.007,2.007-2.007c1.092,0,1.972,0.916,1.972,2.007C-37.665-817.484-38.545-816.604-39.637-816.604
		 M-41.222-814.231h3.134v16.798h-3.134V-814.231z"/>
	<path clip-path="url(#SVGID_2_)" fill="#3A383A" d="M-24.46-797.433v-11.445c0-1.726-0.74-2.888-2.571-2.888
		c-1.655,0-3.345,1.092-4.859,2.712v11.621h-3.135v-16.798h2.889v2.43c1.585-1.444,3.557-2.782,5.952-2.782
		c3.169,0,4.858,1.902,4.858,4.93v12.22H-24.46z"/>
	<path clip-path="url(#SVGID_2_)" fill="#3A383A" d="M-7.172-790.883v-8.487c-1.127,1.127-2.747,2.289-5.036,2.289
		c-3.627,0-6.621-2.641-6.621-8.276c0-6.127,3.381-9.085,8.241-9.085c2.536,0,4.331,0.387,6.55,1.056v22.045L-7.172-790.883z
		 M-7.172-811.167c-1.057-0.387-1.831-0.599-3.381-0.599c-3.275,0-5.106,1.972-5.106,6.268c0,3.698,1.655,5.635,3.909,5.635
		c1.761,0,3.311-1.162,4.578-2.747V-811.167z"/>
	<path clip-path="url(#SVGID_2_)" fill="#3A383A" d="M9.503-797.433l0.016-2.43c-1.585,1.479-3.593,2.782-5.952,2.782
		c-3.204,0-4.86-1.902-4.86-4.93v-12.22h3.135v11.445c0,1.726,0.739,2.888,2.57,2.888c1.655,0,3.346-1.092,4.86-2.712v-11.621h3.134
		v16.798H9.503z"/>
	<path clip-path="url(#SVGID_2_)" fill="#3A383A" d="M17.052-816.604c-1.092,0-2.007-0.88-2.007-1.972
		c0-1.091,0.915-2.007,2.007-2.007c1.091,0,1.973,0.916,1.973,2.007C19.024-817.484,18.143-816.604,17.052-816.604 M15.467-814.231
		h3.134v16.798h-3.134V-814.231z"/>
	<path clip-path="url(#SVGID_2_)" fill="#3A383A" d="M24.798-807.012v9.579h-3.134v-16.798h3.028v3.768
		c1.197-1.902,3.432-3.768,6.374-3.768v2.993C28.284-811.097,25.925-809.23,24.798-807.012"/>
	<path clip-path="url(#SVGID_2_)" fill="#3A383A" d="M35.371-816.604c-1.092,0-2.007-0.88-2.007-1.972
		c0-1.091,0.915-2.007,2.007-2.007s1.972,0.916,1.972,2.007C37.343-817.484,36.463-816.604,35.371-816.604 M33.786-814.231h3.134
		v16.798h-3.134V-814.231z"/>
	<path clip-path="url(#SVGID_2_)" fill="#FFFFFF" d="M-66.942-816.593c0.992,0,1.793-0.8,1.793-1.793
		c0-0.992-0.801-1.824-1.793-1.824c-0.993,0-1.825,0.832-1.825,1.824C-68.768-817.393-67.936-816.593-66.942-816.593"/>
	<path clip-path="url(#SVGID_2_)" fill="none" stroke="#FFFFFF" stroke-width="0.5" stroke-miterlimit="10" d="M-66.942-816.593
		c0.992,0,1.793-0.8,1.793-1.793c0-0.992-0.801-1.824-1.793-1.824c-0.993,0-1.825,0.832-1.825,1.824
		C-68.768-817.393-67.936-816.593-66.942-816.593z"/>
	<path clip-path="url(#SVGID_2_)" fill="#FFFFFF" d="M-68.24-810.107v-3.247h2.571l-0.011,4.944l-1.312,0.544
		c-3.011,1.249-4.354,2.273-4.354,4.322c0,1.953,1.568,3.073,3.714,3.073c2.496,0,4.481-1.12,6.274-2.593l0.416,2.946
		c-1.952,1.44-4.226,2.368-6.852,2.368c-3.904,0-6.562-2.176-6.562-5.666C-74.355-806.873-72.05-808.378-68.24-810.107"/>
	<path clip-path="url(#SVGID_2_)" fill="none" stroke="#FFFFFF" stroke-width="0.5" stroke-miterlimit="10" d="M-68.24-810.107
		v-3.247h2.571l-0.011,4.944l-1.312,0.544c-3.011,1.249-4.354,2.273-4.354,4.322c0,1.953,1.568,3.073,3.714,3.073
		c2.496,0,4.481-1.12,6.274-2.593l0.416,2.946c-1.952,1.44-4.226,2.368-6.852,2.368c-3.904,0-6.562-2.176-6.562-5.666
		C-74.355-806.873-72.05-808.378-68.24-810.107z"/>
	<rect x="-319.417" y="-721.643" clip-path="url(#SVGID_2_)" fill="#F1F2F2" width="213.646" height="41.085"/>
	<rect x="-360.026" y="-721.643" clip-path="url(#SVGID_2_)" fill="#EE3B3E" width="40.609" height="41.085"/>
	<path clip-path="url(#SVGID_2_)" fill="#3A383A" d="M-305.703-707.805c-0.915,0-1.682-0.737-1.682-1.652
		c0-0.914,0.767-1.681,1.682-1.681c0.914,0,1.652,0.767,1.652,1.681C-304.051-708.542-304.789-707.805-305.703-707.805
		 M-307.031-706.028h2.625v14.07h-2.625V-706.028z"/>
	<path clip-path="url(#SVGID_2_)" fill="#3A383A" d="M-292.991-691.958v-9.587c0-1.445-0.619-2.418-2.153-2.418
		c-1.387,0-2.803,0.914-4.071,2.271v9.734h-2.625v-14.07h2.419v2.035c1.327-1.209,2.979-2.33,4.985-2.33
		c2.654,0,4.07,1.593,4.07,4.13v10.235H-292.991z"/>
	<path clip-path="url(#SVGID_2_)" fill="#3A383A" d="M-278.51-686.472v-7.109c-0.944,0.944-2.301,1.918-4.218,1.918
		c-3.038,0-5.545-2.213-5.545-6.932c0-5.133,2.831-7.61,6.902-7.61c2.124,0,3.628,0.324,5.486,0.884v18.466L-278.51-686.472z
		 M-278.51-703.462c-0.885-0.324-1.534-0.502-2.832-0.502c-2.743,0-4.277,1.652-4.277,5.251c0,3.097,1.386,4.719,3.274,4.719
		c1.475,0,2.773-0.973,3.835-2.3V-703.462z"/>
	<path clip-path="url(#SVGID_2_)" fill="#3A383A" d="M-264.543-691.958l0.012-2.035c-1.327,1.239-3.008,2.33-4.985,2.33
		c-2.684,0-4.07-1.593-4.07-4.129v-10.236h2.625v9.587c0,1.445,0.619,2.418,2.153,2.418c1.387,0,2.803-0.914,4.071-2.271v-9.734
		h2.625v14.07H-264.543z"/>
	<path clip-path="url(#SVGID_2_)" fill="#3A383A" d="M-258.221-707.805c-0.914,0-1.681-0.737-1.681-1.652
		c0-0.914,0.767-1.681,1.681-1.681c0.915,0,1.652,0.767,1.652,1.681C-256.569-708.542-257.306-707.805-258.221-707.805
		 M-259.548-706.028h2.625v14.07h-2.625V-706.028z"/>
	<path clip-path="url(#SVGID_2_)" fill="#3A383A" d="M-251.733-699.981v8.023h-2.625v-14.07h2.537v3.156
		c1.003-1.592,2.874-3.156,5.338-3.156v2.507C-248.812-703.404-250.789-701.84-251.733-699.981"/>
	<path clip-path="url(#SVGID_2_)" fill="#3A383A" d="M-242.877-707.805c-0.914,0-1.681-0.737-1.681-1.652
		c0-0.914,0.767-1.681,1.681-1.681c0.915,0,1.652,0.767,1.652,1.681C-241.225-708.542-241.962-707.805-242.877-707.805
		 M-244.204-706.028h2.625v14.07h-2.625V-706.028z"/>
	<path clip-path="url(#SVGID_2_)" fill="#FFFFFF" d="M-339.239-709.287c0.992,0,1.793-0.8,1.793-1.793
		c0-0.992-0.801-1.824-1.793-1.824c-0.993,0-1.825,0.832-1.825,1.824C-341.063-710.087-340.231-709.287-339.239-709.287"/>
	<path clip-path="url(#SVGID_2_)" fill="none" stroke="#FFFFFF" stroke-width="0.5" stroke-miterlimit="10" d="M-339.239-709.287
		c0.992,0,1.793-0.8,1.793-1.793c0-0.992-0.801-1.824-1.793-1.824c-0.993,0-1.825,0.832-1.825,1.824
		C-341.063-710.087-340.231-709.287-339.239-709.287z"/>
	<path clip-path="url(#SVGID_2_)" fill="#FFFFFF" d="M-340.537-702.801v-3.878h2.572l-0.011,5.575l-1.312,0.545
		c-3.01,1.248-4.354,2.272-4.354,4.321c0,1.953,1.569,3.073,3.714,3.073c2.496,0,4.481-1.12,6.274-2.593l0.416,2.946
		c-1.952,1.44-4.225,2.369-6.851,2.369c-3.905,0-6.563-2.177-6.563-5.667C-346.652-699.567-344.346-701.072-340.537-702.801"/>
	<path clip-path="url(#SVGID_2_)" fill="none" stroke="#FFFFFF" stroke-width="0.5" stroke-miterlimit="10" d="M-340.537-702.801
		v-3.878h2.572l-0.011,5.575l-1.312,0.545c-3.01,1.248-4.354,2.272-4.354,4.321c0,1.953,1.569,3.073,3.714,3.073
		c2.496,0,4.481-1.12,6.274-2.593l0.416,2.946c-1.952,1.44-4.225,2.369-6.851,2.369c-3.905,0-6.563-2.177-6.563-5.667
		C-346.652-699.567-344.346-701.072-340.537-702.801z"/>
	<rect x="-319.417" y="-671.937" clip-path="url(#SVGID_2_)" fill="#F1F2F2" width="213.646" height="41.085"/>
	<rect x="-360.026" y="-671.937" clip-path="url(#SVGID_2_)" fill="#F89823" width="40.609" height="41.085"/>
	<path clip-path="url(#SVGID_2_)" fill="#3A383A" d="M-305.703-658.099c-0.915,0-1.682-0.737-1.682-1.651
		c0-0.915,0.767-1.682,1.682-1.682c0.914,0,1.652,0.767,1.652,1.682C-304.051-658.836-304.789-658.099-305.703-658.099
		 M-307.031-656.322h2.625v14.07h-2.625V-656.322z"/>
	<path clip-path="url(#SVGID_2_)" fill="#3A383A" d="M-292.991-642.252v-9.587c0-1.445-0.619-2.418-2.153-2.418
		c-1.387,0-2.803,0.914-4.071,2.271v9.734h-2.625v-14.07h2.419v2.035c1.327-1.209,2.979-2.33,4.985-2.33
		c2.654,0,4.07,1.593,4.07,4.13v10.235H-292.991z"/>
	<path clip-path="url(#SVGID_2_)" fill="#3A383A" d="M-278.51-636.766v-7.109c-0.944,0.944-2.301,1.918-4.218,1.918
		c-3.038,0-5.545-2.213-5.545-6.932c0-5.133,2.831-7.61,6.902-7.61c2.124,0,3.628,0.324,5.486,0.885v18.465L-278.51-636.766z
		 M-278.51-653.756c-0.885-0.324-1.534-0.502-2.832-0.502c-2.743,0-4.277,1.652-4.277,5.251c0,3.097,1.386,4.719,3.274,4.719
		c1.475,0,2.773-0.973,3.835-2.3V-653.756z"/>
	<path clip-path="url(#SVGID_2_)" fill="#3A383A" d="M-264.543-642.252l0.012-2.035c-1.327,1.239-3.008,2.33-4.985,2.33
		c-2.684,0-4.07-1.593-4.07-4.129v-10.236h2.625v9.587c0,1.445,0.619,2.418,2.153,2.418c1.387,0,2.803-0.914,4.071-2.271v-9.734
		h2.625v14.07H-264.543z"/>
	<path clip-path="url(#SVGID_2_)" fill="#3A383A" d="M-258.221-658.099c-0.914,0-1.681-0.737-1.681-1.651
		c0-0.915,0.767-1.682,1.681-1.682c0.915,0,1.652,0.767,1.652,1.682C-256.569-658.836-257.306-658.099-258.221-658.099
		 M-259.548-656.322h2.625v14.07h-2.625V-656.322z"/>
	<path clip-path="url(#SVGID_2_)" fill="#3A383A" d="M-251.733-650.276v8.023h-2.625v-14.07h2.537v3.156
		c1.003-1.592,2.874-3.156,5.338-3.156v2.507C-248.812-653.698-250.789-652.134-251.733-650.276"/>
	<path clip-path="url(#SVGID_2_)" fill="#3A383A" d="M-242.877-658.099c-0.914,0-1.681-0.737-1.681-1.651
		c0-0.915,0.767-1.682,1.681-1.682c0.915,0,1.652,0.767,1.652,1.682C-241.225-658.836-241.962-658.099-242.877-658.099
		 M-244.204-656.322h2.625v14.07h-2.625V-656.322z"/>
	<path clip-path="url(#SVGID_2_)" fill="#FFFFFF" d="M-339.239-659.581c0.992,0,1.793-0.8,1.793-1.793
		c0-0.992-0.801-1.824-1.793-1.824c-0.993,0-1.825,0.832-1.825,1.824C-341.063-660.381-340.231-659.581-339.239-659.581"/>
	<path clip-path="url(#SVGID_2_)" fill="none" stroke="#FFFFFF" stroke-width="0.5" stroke-miterlimit="10" d="M-339.239-659.581
		c0.992,0,1.793-0.8,1.793-1.793c0-0.992-0.801-1.824-1.793-1.824c-0.993,0-1.825,0.832-1.825,1.824
		C-341.063-660.381-340.231-659.581-339.239-659.581z"/>
	<path clip-path="url(#SVGID_2_)" fill="#FFFFFF" d="M-340.537-653.095v-3.878h2.572l-0.011,5.575l-1.312,0.545
		c-3.01,1.248-4.354,2.272-4.354,4.321c0,1.953,1.569,3.073,3.714,3.073c2.496,0,4.481-1.12,6.274-2.593l0.416,2.946
		c-1.952,1.44-4.225,2.369-6.851,2.369c-3.905,0-6.563-2.177-6.563-5.667C-346.652-649.861-344.346-651.366-340.537-653.095"/>
	<path clip-path="url(#SVGID_2_)" fill="none" stroke="#FFFFFF" stroke-width="0.5" stroke-miterlimit="10" d="M-340.537-653.095
		v-3.878h2.572l-0.011,5.575l-1.312,0.545c-3.01,1.248-4.354,2.272-4.354,4.321c0,1.953,1.569,3.073,3.714,3.073
		c2.496,0,4.481-1.12,6.274-2.593l0.416,2.946c-1.952,1.44-4.225,2.369-6.851,2.369c-3.905,0-6.563-2.177-6.563-5.667
		C-346.652-649.861-344.346-651.366-340.537-653.095z"/>
	<rect x="-319.417" y="-622.824" clip-path="url(#SVGID_2_)" fill="#F1F2F2" width="213.646" height="41.085"/>
	<rect x="-360.026" y="-622.824" clip-path="url(#SVGID_2_)" fill="#167FAA" width="40.609" height="41.085"/>
	<path clip-path="url(#SVGID_2_)" fill="#3A383A" d="M-305.703-608.987c-0.915,0-1.682-0.737-1.682-1.651
		c0-0.915,0.767-1.682,1.682-1.682c0.914,0,1.652,0.767,1.652,1.682C-304.051-609.724-304.789-608.987-305.703-608.987
		 M-307.031-607.21h2.625v14.07h-2.625V-607.21z"/>
	<path clip-path="url(#SVGID_2_)" fill="#3A383A" d="M-292.991-593.141v-9.586c0-1.445-0.619-2.418-2.153-2.418
		c-1.387,0-2.803,0.914-4.071,2.271v9.733h-2.625v-14.069h2.419v2.035c1.327-1.209,2.979-2.33,4.985-2.33
		c2.654,0,4.07,1.593,4.07,4.13v10.234H-292.991z"/>
	<path clip-path="url(#SVGID_2_)" fill="#3A383A" d="M-278.51-587.654v-7.108c-0.944,0.944-2.301,1.918-4.218,1.918
		c-3.038,0-5.545-2.213-5.545-6.933c0-5.132,2.831-7.609,6.902-7.609c2.124,0,3.628,0.324,5.486,0.885v18.465L-278.51-587.654z
		 M-278.51-604.644c-0.885-0.324-1.534-0.502-2.832-0.502c-2.743,0-4.277,1.652-4.277,5.251c0,3.097,1.386,4.719,3.274,4.719
		c1.475,0,2.773-0.973,3.835-2.3V-604.644z"/>
	<path clip-path="url(#SVGID_2_)" fill="#3A383A" d="M-264.543-593.141l0.012-2.034c-1.327,1.238-3.008,2.33-4.985,2.33
		c-2.684,0-4.07-1.594-4.07-4.13v-10.235h2.625v9.587c0,1.445,0.619,2.418,2.153,2.418c1.387,0,2.803-0.914,4.071-2.271v-9.733
		h2.625v14.069H-264.543z"/>
	<path clip-path="url(#SVGID_2_)" fill="#3A383A" d="M-258.221-608.987c-0.914,0-1.681-0.737-1.681-1.651
		c0-0.915,0.767-1.682,1.681-1.682c0.915,0,1.652,0.767,1.652,1.682C-256.569-609.724-257.306-608.987-258.221-608.987
		 M-259.548-607.21h2.625v14.07h-2.625V-607.21z"/>
	<path clip-path="url(#SVGID_2_)" fill="#3A383A" d="M-251.733-601.163v8.022h-2.625v-14.07h2.537v3.156
		c1.003-1.592,2.874-3.156,5.338-3.156v2.507C-248.812-604.585-250.789-603.021-251.733-601.163"/>
	<path clip-path="url(#SVGID_2_)" fill="#3A383A" d="M-242.877-608.987c-0.914,0-1.681-0.737-1.681-1.651
		c0-0.915,0.767-1.682,1.681-1.682c0.915,0,1.652,0.767,1.652,1.682C-241.225-609.724-241.962-608.987-242.877-608.987
		 M-244.204-607.21h2.625v14.07h-2.625V-607.21z"/>
	<path clip-path="url(#SVGID_2_)" fill="#FFFFFF" d="M-339.239-610.469c0.992,0,1.793-0.8,1.793-1.793
		c0-0.992-0.801-1.824-1.793-1.824c-0.993,0-1.825,0.832-1.825,1.824C-341.063-611.269-340.231-610.469-339.239-610.469"/>
	<path clip-path="url(#SVGID_2_)" fill="none" stroke="#FFFFFF" stroke-width="0.5" stroke-miterlimit="10" d="M-339.239-610.469
		c0.992,0,1.793-0.8,1.793-1.793c0-0.992-0.801-1.824-1.793-1.824c-0.993,0-1.825,0.832-1.825,1.824
		C-341.063-611.269-340.231-610.469-339.239-610.469z"/>
	<path clip-path="url(#SVGID_2_)" fill="#FFFFFF" d="M-340.537-603.983v-3.878h2.572l-0.011,5.575l-1.312,0.545
		c-3.01,1.248-4.354,2.272-4.354,4.321c0,1.953,1.569,3.073,3.714,3.073c2.496,0,4.481-1.12,6.274-2.594l0.416,2.946
		c-1.952,1.44-4.225,2.369-6.851,2.369c-3.905,0-6.563-2.177-6.563-5.667C-346.652-600.749-344.346-602.254-340.537-603.983"/>
	<path clip-path="url(#SVGID_2_)" fill="none" stroke="#FFFFFF" stroke-width="0.5" stroke-miterlimit="10" d="M-340.537-603.983
		v-3.878h2.572l-0.011,5.575l-1.312,0.545c-3.01,1.248-4.354,2.272-4.354,4.321c0,1.953,1.569,3.073,3.714,3.073
		c2.496,0,4.481-1.12,6.274-2.594l0.416,2.946c-1.952,1.44-4.225,2.369-6.851,2.369c-3.905,0-6.563-2.177-6.563-5.667
		C-346.652-600.749-344.346-602.254-340.537-603.983z"/>
	<rect x="-36.701" y="-729.595" clip-path="url(#SVGID_2_)" fill="#F1F2F2" width="213.646" height="41.085"/>
	<rect x="-77.309" y="-729.595" clip-path="url(#SVGID_2_)" fill="#7ED0E1" width="40.608" height="41.085"/>
	<path clip-path="url(#SVGID_2_)" fill="#3A383A" d="M-22.987-715.757c-0.915,0-1.681-0.738-1.681-1.652
		c0-0.914,0.766-1.681,1.681-1.681c0.914,0,1.652,0.767,1.652,1.681C-21.335-716.495-22.073-715.757-22.987-715.757
		 M-24.314-713.981h2.625v14.07h-2.625V-713.981z"/>
	<path clip-path="url(#SVGID_2_)" fill="#3A383A" d="M-10.274-699.911v-9.587c0-1.445-0.619-2.418-2.153-2.418
		c-1.387,0-2.803,0.914-4.071,2.271v9.734h-2.625v-14.07h2.419v2.035c1.327-1.209,2.979-2.33,4.985-2.33
		c2.654,0,4.07,1.593,4.07,4.13v10.235H-10.274z"/>
	<path clip-path="url(#SVGID_2_)" fill="#3A383A" d="M4.206-694.424v-7.109c-0.944,0.944-2.301,1.918-4.218,1.918
		c-3.038,0-5.545-2.213-5.545-6.932c0-5.133,2.831-7.61,6.901-7.61c2.124,0,3.628,0.324,5.486,0.885v18.465L4.206-694.424z
		 M4.206-711.415c-0.885-0.324-1.534-0.502-2.832-0.502c-2.743,0-4.277,1.652-4.277,5.251c0,3.097,1.387,4.719,3.274,4.719
		c1.475,0,2.772-0.973,3.835-2.3V-711.415z"/>
	<path clip-path="url(#SVGID_2_)" fill="#3A383A" d="M18.173-699.911l0.012-2.035c-1.327,1.239-3.008,2.33-4.984,2.33
		c-2.685,0-4.07-1.593-4.07-4.129v-10.236h2.625v9.587c0,1.445,0.619,2.418,2.153,2.418c1.387,0,2.803-0.914,4.07-2.271v-9.734
		h2.625v14.07H18.173z"/>
	<path clip-path="url(#SVGID_2_)" fill="#3A383A" d="M24.495-715.757c-0.914,0-1.682-0.738-1.682-1.652
		c0-0.914,0.768-1.681,1.682-1.681c0.915,0,1.652,0.767,1.652,1.681C26.147-716.495,25.41-715.757,24.495-715.757 M23.168-713.981
		h2.625v14.07h-2.625V-713.981z"/>
	<path clip-path="url(#SVGID_2_)" fill="#3A383A" d="M30.983-707.934v8.023h-2.625v-14.07h2.537v3.156
		c1.003-1.592,2.874-3.156,5.338-3.156v2.507C33.903-711.356,31.928-709.792,30.983-707.934"/>
	<path clip-path="url(#SVGID_2_)" fill="#3A383A" d="M39.84-715.757c-0.915,0-1.682-0.738-1.682-1.652
		c0-0.914,0.767-1.681,1.682-1.681c0.914,0,1.651,0.767,1.651,1.681C41.491-716.495,40.754-715.757,39.84-715.757 M38.512-713.981
		h2.625v14.07h-2.625V-713.981z"/>
	<path clip-path="url(#SVGID_2_)" fill="#FFFFFF" d="M-56.522-717.239c0.992,0,1.793-0.8,1.793-1.793
		c0-0.992-0.801-1.824-1.793-1.824c-0.993,0-1.825,0.832-1.825,1.824C-58.348-718.04-57.516-717.239-56.522-717.239"/>
	<path clip-path="url(#SVGID_2_)" fill="none" stroke="#FFFFFF" stroke-width="0.5" stroke-miterlimit="10" d="M-56.522-717.239
		c0.992,0,1.793-0.8,1.793-1.793c0-0.992-0.801-1.824-1.793-1.824c-0.993,0-1.825,0.832-1.825,1.824
		C-58.348-718.04-57.516-717.239-56.522-717.239z"/>
	<path clip-path="url(#SVGID_2_)" fill="#FFFFFF" d="M-57.82-710.754v-3.878h2.572l-0.012,5.575l-1.312,0.545
		c-3.01,1.248-4.354,2.272-4.354,4.321c0,1.953,1.569,3.073,3.714,3.073c2.496,0,4.481-1.12,6.274-2.593l0.416,2.946
		c-1.952,1.44-4.225,2.369-6.851,2.369c-3.905,0-6.563-2.177-6.563-5.667C-63.936-707.52-61.63-709.025-57.82-710.754"/>
	<path clip-path="url(#SVGID_2_)" fill="none" stroke="#FFFFFF" stroke-width="0.5" stroke-miterlimit="10" d="M-57.82-710.754
		v-3.878h2.572l-0.012,5.575l-1.312,0.545c-3.01,1.248-4.354,2.272-4.354,4.321c0,1.953,1.569,3.073,3.714,3.073
		c2.496,0,4.481-1.12,6.274-2.593l0.416,2.946c-1.952,1.44-4.225,2.369-6.851,2.369c-3.905,0-6.563-2.177-6.563-5.667
		C-63.936-707.52-61.63-709.025-57.82-710.754z"/>
	<rect x="-36.701" y="-674.961" clip-path="url(#SVGID_2_)" fill="#F1F2F2" width="213.646" height="41.085"/>
	<rect x="-77.309" y="-674.961" clip-path="url(#SVGID_2_)" fill="#5DC4B8" width="40.608" height="41.085"/>
	<path clip-path="url(#SVGID_2_)" fill="#3A383A" d="M-22.987-661.123c-0.915,0-1.681-0.737-1.681-1.651
		c0-0.915,0.766-1.682,1.681-1.682c0.914,0,1.652,0.767,1.652,1.682C-21.335-661.86-22.073-661.123-22.987-661.123 M-24.314-659.346
		h2.625v14.07h-2.625V-659.346z"/>
	<path clip-path="url(#SVGID_2_)" fill="#3A383A" d="M-10.274-645.276v-9.587c0-1.445-0.619-2.418-2.153-2.418
		c-1.387,0-2.803,0.914-4.071,2.271v9.734h-2.625v-14.07h2.419v2.035c1.327-1.209,2.979-2.33,4.985-2.33
		c2.654,0,4.07,1.593,4.07,4.13v10.235H-10.274z"/>
	<path clip-path="url(#SVGID_2_)" fill="#3A383A" d="M4.206-639.79v-7.109c-0.944,0.944-2.301,1.918-4.218,1.918
		c-3.038,0-5.545-2.213-5.545-6.932c0-5.133,2.831-7.61,6.901-7.61c2.124,0,3.628,0.324,5.486,0.884v18.466L4.206-639.79z
		 M4.206-656.78c-0.885-0.324-1.534-0.502-2.832-0.502c-2.743,0-4.277,1.652-4.277,5.251c0,3.097,1.387,4.719,3.274,4.719
		c1.475,0,2.772-0.973,3.835-2.3V-656.78z"/>
	<path clip-path="url(#SVGID_2_)" fill="#3A383A" d="M18.173-645.276l0.012-2.035c-1.327,1.239-3.008,2.33-4.984,2.33
		c-2.685,0-4.07-1.593-4.07-4.129v-10.236h2.625v9.587c0,1.445,0.619,2.418,2.153,2.418c1.387,0,2.803-0.914,4.07-2.271v-9.734
		h2.625v14.07H18.173z"/>
	<path clip-path="url(#SVGID_2_)" fill="#3A383A" d="M24.495-661.123c-0.914,0-1.682-0.737-1.682-1.651
		c0-0.915,0.768-1.682,1.682-1.682c0.915,0,1.652,0.767,1.652,1.682C26.147-661.86,25.41-661.123,24.495-661.123 M23.168-659.346
		h2.625v14.07h-2.625V-659.346z"/>
	<path clip-path="url(#SVGID_2_)" fill="#3A383A" d="M30.983-653.3v8.023h-2.625v-14.07h2.537v3.156
		c1.003-1.592,2.874-3.156,5.338-3.156v2.507C33.903-656.722,31.928-655.158,30.983-653.3"/>
	<path clip-path="url(#SVGID_2_)" fill="#3A383A" d="M39.84-661.123c-0.915,0-1.682-0.737-1.682-1.651
		c0-0.915,0.767-1.682,1.682-1.682c0.914,0,1.651,0.767,1.651,1.682C41.491-661.86,40.754-661.123,39.84-661.123 M38.512-659.346
		h2.625v14.07h-2.625V-659.346z"/>
	<path clip-path="url(#SVGID_2_)" fill="#FFFFFF" d="M-56.522-662.605c0.992,0,1.793-0.8,1.793-1.793
		c0-0.992-0.801-1.824-1.793-1.824c-0.993,0-1.825,0.832-1.825,1.824C-58.348-663.405-57.516-662.605-56.522-662.605"/>
	<path clip-path="url(#SVGID_2_)" fill="none" stroke="#FFFFFF" stroke-width="0.5" stroke-miterlimit="10" d="M-56.522-662.605
		c0.992,0,1.793-0.8,1.793-1.793c0-0.992-0.801-1.824-1.793-1.824c-0.993,0-1.825,0.832-1.825,1.824
		C-58.348-663.405-57.516-662.605-56.522-662.605z"/>
	<path clip-path="url(#SVGID_2_)" fill="#FFFFFF" d="M-57.82-656.119v-3.878h2.572l-0.012,5.575l-1.312,0.545
		c-3.01,1.248-4.354,2.272-4.354,4.321c0,1.953,1.569,3.073,3.714,3.073c2.496,0,4.481-1.12,6.274-2.593l0.416,2.946
		c-1.952,1.44-4.225,2.369-6.851,2.369c-3.905,0-6.563-2.177-6.563-5.667C-63.936-652.885-61.63-654.39-57.82-656.119"/>
	<path clip-path="url(#SVGID_2_)" fill="none" stroke="#FFFFFF" stroke-width="0.5" stroke-miterlimit="10" d="M-57.82-656.119
		v-3.878h2.572l-0.012,5.575l-1.312,0.545c-3.01,1.248-4.354,2.272-4.354,4.321c0,1.953,1.569,3.073,3.714,3.073
		c2.496,0,4.481-1.12,6.274-2.593l0.416,2.946c-1.952,1.44-4.225,2.369-6.851,2.369c-3.905,0-6.563-2.177-6.563-5.667
		C-63.936-652.885-61.63-654.39-57.82-656.119z"/>
	<rect x="-36.701" y="-622.824" clip-path="url(#SVGID_2_)" fill="#F1F2F2" width="213.646" height="41.085"/>
	<rect x="-77.309" y="-622.824" clip-path="url(#SVGID_2_)" fill="#FFD200" width="40.608" height="41.085"/>
	<path clip-path="url(#SVGID_2_)" fill="#3A383A" d="M-22.987-608.987c-0.915,0-1.681-0.737-1.681-1.651
		c0-0.915,0.766-1.682,1.681-1.682c0.914,0,1.652,0.767,1.652,1.682C-21.335-609.724-22.073-608.987-22.987-608.987 M-24.314-607.21
		h2.625v14.07h-2.625V-607.21z"/>
	<path clip-path="url(#SVGID_2_)" fill="#3A383A" d="M-10.274-593.141v-9.586c0-1.445-0.619-2.418-2.153-2.418
		c-1.387,0-2.803,0.914-4.071,2.271v9.733h-2.625v-14.069h2.419v2.035c1.327-1.209,2.979-2.33,4.985-2.33
		c2.654,0,4.07,1.593,4.07,4.13v10.234H-10.274z"/>
	<path clip-path="url(#SVGID_2_)" fill="#3A383A" d="M4.206-587.654v-7.108c-0.944,0.944-2.301,1.918-4.218,1.918
		c-3.038,0-5.545-2.213-5.545-6.933c0-5.132,2.831-7.609,6.901-7.609c2.124,0,3.628,0.324,5.486,0.885v18.465L4.206-587.654z
		 M4.206-604.644c-0.885-0.324-1.534-0.502-2.832-0.502c-2.743,0-4.277,1.652-4.277,5.251c0,3.097,1.387,4.719,3.274,4.719
		c1.475,0,2.772-0.973,3.835-2.3V-604.644z"/>
	<path clip-path="url(#SVGID_2_)" fill="#3A383A" d="M18.173-593.141l0.012-2.034c-1.327,1.238-3.008,2.33-4.984,2.33
		c-2.685,0-4.07-1.594-4.07-4.13v-10.235h2.625v9.587c0,1.445,0.619,2.418,2.153,2.418c1.387,0,2.803-0.914,4.07-2.271v-9.733h2.625
		v14.069H18.173z"/>
	<path clip-path="url(#SVGID_2_)" fill="#3A383A" d="M24.495-608.987c-0.914,0-1.682-0.737-1.682-1.651
		c0-0.915,0.768-1.682,1.682-1.682c0.915,0,1.652,0.767,1.652,1.682C26.147-609.724,25.41-608.987,24.495-608.987 M23.168-607.21
		h2.625v14.07h-2.625V-607.21z"/>
	<path clip-path="url(#SVGID_2_)" fill="#3A383A" d="M30.983-601.163v8.022h-2.625v-14.07h2.537v3.156
		c1.003-1.592,2.874-3.156,5.338-3.156v2.507C33.903-604.585,31.928-603.021,30.983-601.163"/>
	<path clip-path="url(#SVGID_2_)" fill="#3A383A" d="M39.84-608.987c-0.915,0-1.682-0.737-1.682-1.651
		c0-0.915,0.767-1.682,1.682-1.682c0.914,0,1.651,0.767,1.651,1.682C41.491-609.724,40.754-608.987,39.84-608.987 M38.512-607.21
		h2.625v14.07h-2.625V-607.21z"/>
	<path clip-path="url(#SVGID_2_)" fill="#FFFFFF" d="M-56.522-610.469c0.992,0,1.793-0.8,1.793-1.793
		c0-0.992-0.801-1.824-1.793-1.824c-0.993,0-1.825,0.832-1.825,1.824C-58.348-611.269-57.516-610.469-56.522-610.469"/>
	<path clip-path="url(#SVGID_2_)" fill="none" stroke="#FFFFFF" stroke-width="0.5" stroke-miterlimit="10" d="M-56.522-610.469
		c0.992,0,1.793-0.8,1.793-1.793c0-0.992-0.801-1.824-1.793-1.824c-0.993,0-1.825,0.832-1.825,1.824
		C-58.348-611.269-57.516-610.469-56.522-610.469z"/>
	<path clip-path="url(#SVGID_2_)" fill="#FFFFFF" d="M-57.82-603.983v-3.878h2.572l-0.012,5.575l-1.312,0.545
		c-3.01,1.248-4.354,2.272-4.354,4.321c0,1.953,1.569,3.073,3.714,3.073c2.496,0,4.481-1.12,6.274-2.594l0.416,2.946
		c-1.952,1.44-4.225,2.369-6.851,2.369c-3.905,0-6.563-2.177-6.563-5.667C-63.936-600.749-61.63-602.254-57.82-603.983"/>
	<path clip-path="url(#SVGID_2_)" fill="none" stroke="#FFFFFF" stroke-width="0.5" stroke-miterlimit="10" d="M-57.82-603.983
		v-3.878h2.572l-0.012,5.575l-1.312,0.545c-3.01,1.248-4.354,2.272-4.354,4.321c0,1.953,1.569,3.073,3.714,3.073
		c2.496,0,4.481-1.12,6.274-2.594l0.416,2.946c-1.952,1.44-4.225,2.369-6.851,2.369c-3.905,0-6.563-2.177-6.563-5.667
		C-63.936-600.749-61.63-602.254-57.82-603.983z"/>
	<rect x="-36.701" y="-570.158" clip-path="url(#SVGID_2_)" fill="#F1F2F2" width="213.646" height="41.085"/>
	<rect x="-77.309" y="-570.158" clip-path="url(#SVGID_2_)" fill="#EE2A7B" width="40.608" height="41.085"/>
	<path clip-path="url(#SVGID_2_)" fill="#3A383A" d="M-22.987-556.32c-0.915,0-1.681-0.736-1.681-1.651
		c0-0.914,0.766-1.682,1.681-1.682c0.914,0,1.652,0.768,1.652,1.682C-21.335-557.057-22.073-556.32-22.987-556.32 M-24.314-554.544
		h2.625v14.07h-2.625V-554.544z"/>
	<path clip-path="url(#SVGID_2_)" fill="#3A383A" d="M-10.274-540.474v-9.587c0-1.445-0.619-2.418-2.153-2.418
		c-1.387,0-2.803,0.914-4.071,2.271v9.733h-2.625v-14.069h2.419v2.034c1.327-1.209,2.979-2.33,4.985-2.33
		c2.654,0,4.07,1.594,4.07,4.131v10.234H-10.274z"/>
	<path clip-path="url(#SVGID_2_)" fill="#3A383A" d="M4.206-534.987v-7.108c-0.944,0.943-2.301,1.918-4.218,1.918
		c-3.038,0-5.545-2.214-5.545-6.933c0-5.133,2.831-7.609,6.901-7.609c2.124,0,3.628,0.323,5.486,0.884v18.466L4.206-534.987z
		 M4.206-551.978c-0.885-0.323-1.534-0.502-2.832-0.502c-2.743,0-4.277,1.652-4.277,5.251c0,3.098,1.387,4.72,3.274,4.72
		c1.475,0,2.772-0.974,3.835-2.301V-551.978z"/>
	<path clip-path="url(#SVGID_2_)" fill="#3A383A" d="M18.173-540.474l0.012-2.035c-1.327,1.239-3.008,2.33-4.984,2.33
		c-2.685,0-4.07-1.593-4.07-4.129v-10.235h2.625v9.587c0,1.444,0.619,2.418,2.153,2.418c1.387,0,2.803-0.914,4.07-2.271v-9.733
		h2.625v14.069H18.173z"/>
	<path clip-path="url(#SVGID_2_)" fill="#3A383A" d="M24.495-556.32c-0.914,0-1.682-0.736-1.682-1.651
		c0-0.914,0.768-1.682,1.682-1.682c0.915,0,1.652,0.768,1.652,1.682C26.147-557.057,25.41-556.32,24.495-556.32 M23.168-554.544
		h2.625v14.07h-2.625V-554.544z"/>
	<path clip-path="url(#SVGID_2_)" fill="#3A383A" d="M30.983-548.497v8.023h-2.625v-14.07h2.537v3.156
		c1.003-1.592,2.874-3.156,5.338-3.156v2.507C33.903-551.919,31.928-550.354,30.983-548.497"/>
	<path clip-path="url(#SVGID_2_)" fill="#3A383A" d="M39.84-556.32c-0.915,0-1.682-0.736-1.682-1.651
		c0-0.914,0.767-1.682,1.682-1.682c0.914,0,1.651,0.768,1.651,1.682C41.491-557.057,40.754-556.32,39.84-556.32 M38.512-554.544
		h2.625v14.07h-2.625V-554.544z"/>
	<path clip-path="url(#SVGID_2_)" fill="#FFFFFF" d="M-56.522-557.802c0.992,0,1.793-0.801,1.793-1.793s-0.801-1.824-1.793-1.824
		c-0.993,0-1.825,0.832-1.825,1.824S-57.516-557.802-56.522-557.802"/>
	<path clip-path="url(#SVGID_2_)" fill="none" stroke="#FFFFFF" stroke-width="0.5" stroke-miterlimit="10" d="M-56.522-557.802
		c0.992,0,1.793-0.801,1.793-1.793s-0.801-1.824-1.793-1.824c-0.993,0-1.825,0.832-1.825,1.824S-57.516-557.802-56.522-557.802z"/>
	<path clip-path="url(#SVGID_2_)" fill="#FFFFFF" d="M-57.82-551.316v-3.878h2.572l-0.012,5.575l-1.312,0.545
		c-3.01,1.248-4.354,2.271-4.354,4.32c0,1.953,1.569,3.073,3.714,3.073c2.496,0,4.481-1.12,6.274-2.593l0.416,2.946
		c-1.952,1.439-4.225,2.369-6.851,2.369c-3.905,0-6.563-2.178-6.563-5.667C-63.936-548.082-61.63-549.588-57.82-551.316"/>
	<path clip-path="url(#SVGID_2_)" fill="none" stroke="#FFFFFF" stroke-width="0.5" stroke-miterlimit="10" d="M-57.82-551.316
		v-3.878h2.572l-0.012,5.575l-1.312,0.545c-3.01,1.248-4.354,2.271-4.354,4.32c0,1.953,1.569,3.073,3.714,3.073
		c2.496,0,4.481-1.12,6.274-2.593l0.416,2.946c-1.952,1.439-4.225,2.369-6.851,2.369c-3.905,0-6.563-2.178-6.563-5.667
		C-63.936-548.082-61.63-549.588-57.82-551.316z"/>
	<rect x="-319.417" y="-446.026" clip-path="url(#SVGID_2_)" width="213.646" height="41.085"/>
	<rect x="-360.026" y="-446.026" clip-path="url(#SVGID_2_)" fill="#EE3B3E" width="40.609" height="41.085"/>
	<path clip-path="url(#SVGID_2_)" fill="#FFFFFF" d="M-305.703-432.188c-0.915,0-1.682-0.738-1.682-1.652s0.767-1.681,1.682-1.681
		c0.914,0,1.652,0.767,1.652,1.681S-304.789-432.188-305.703-432.188 M-307.031-430.412h2.625v14.07h-2.625V-430.412z"/>
	<path clip-path="url(#SVGID_2_)" fill="#FFFFFF" d="M-292.991-416.342v-9.587c0-1.445-0.619-2.418-2.153-2.418
		c-1.387,0-2.803,0.914-4.071,2.271v9.734h-2.625v-14.07h2.419v2.035c1.327-1.209,2.979-2.33,4.985-2.33
		c2.654,0,4.07,1.593,4.07,4.13v10.235H-292.991z"/>
	<path clip-path="url(#SVGID_2_)" fill="#FFFFFF" d="M-278.51-410.855v-7.109c-0.944,0.944-2.301,1.918-4.218,1.918
		c-3.038,0-5.545-2.213-5.545-6.932c0-5.133,2.831-7.61,6.902-7.61c2.124,0,3.628,0.324,5.486,0.885v18.466L-278.51-410.855z
		 M-278.51-427.846c-0.885-0.324-1.534-0.502-2.832-0.502c-2.743,0-4.277,1.652-4.277,5.251c0,3.098,1.386,4.719,3.274,4.719
		c1.475,0,2.773-0.973,3.835-2.3V-427.846z"/>
	<path clip-path="url(#SVGID_2_)" fill="#FFFFFF" d="M-264.543-416.342l0.012-2.035c-1.327,1.239-3.008,2.33-4.985,2.33
		c-2.684,0-4.07-1.593-4.07-4.129v-10.236h2.625v9.587c0,1.445,0.619,2.418,2.153,2.418c1.387,0,2.803-0.914,4.071-2.271v-9.734
		h2.625v14.07H-264.543z"/>
	<path clip-path="url(#SVGID_2_)" fill="#FFFFFF" d="M-258.221-432.188c-0.914,0-1.681-0.738-1.681-1.652s0.767-1.681,1.681-1.681
		c0.915,0,1.652,0.767,1.652,1.681S-257.306-432.188-258.221-432.188 M-259.548-430.412h2.625v14.07h-2.625V-430.412z"/>
	<path clip-path="url(#SVGID_2_)" fill="#FFFFFF" d="M-251.733-424.365v8.023h-2.625v-14.07h2.537v3.156
		c1.003-1.592,2.874-3.156,5.338-3.156v2.507C-248.812-427.787-250.789-426.223-251.733-424.365"/>
	<path clip-path="url(#SVGID_2_)" fill="#FFFFFF" d="M-242.877-432.188c-0.914,0-1.681-0.738-1.681-1.652s0.767-1.681,1.681-1.681
		c0.915,0,1.652,0.767,1.652,1.681S-241.962-432.188-242.877-432.188 M-244.204-430.412h2.625v14.07h-2.625V-430.412z"/>
	<path clip-path="url(#SVGID_2_)" fill="#FFFFFF" d="M-339.239-433.671c0.992,0,1.793-0.8,1.793-1.793
		c0-0.991-0.801-1.824-1.793-1.824c-0.993,0-1.825,0.833-1.825,1.824C-341.063-434.471-340.231-433.671-339.239-433.671"/>
	<path clip-path="url(#SVGID_2_)" fill="none" stroke="#FFFFFF" stroke-width="0.5" stroke-miterlimit="10" d="M-339.239-433.671
		c0.992,0,1.793-0.8,1.793-1.793c0-0.991-0.801-1.824-1.793-1.824c-0.993,0-1.825,0.833-1.825,1.824
		C-341.063-434.471-340.231-433.671-339.239-433.671z"/>
	<path clip-path="url(#SVGID_2_)" fill="#FFFFFF" d="M-340.537-427.185v-3.878h2.572l-0.011,5.575l-1.312,0.545
		c-3.01,1.248-4.354,2.271-4.354,4.32c0,1.953,1.569,3.073,3.714,3.073c2.496,0,4.481-1.12,6.274-2.593l0.416,2.946
		c-1.952,1.439-4.225,2.368-6.851,2.368c-3.905,0-6.563-2.177-6.563-5.667C-346.652-423.951-344.346-425.456-340.537-427.185"/>
	<path clip-path="url(#SVGID_2_)" fill="none" stroke="#FFFFFF" stroke-width="0.5" stroke-miterlimit="10" d="M-340.537-427.185
		v-3.878h2.572l-0.011,5.575l-1.312,0.545c-3.01,1.248-4.354,2.271-4.354,4.32c0,1.953,1.569,3.073,3.714,3.073
		c2.496,0,4.481-1.12,6.274-2.593l0.416,2.946c-1.952,1.439-4.225,2.368-6.851,2.368c-3.905,0-6.563-2.177-6.563-5.667
		C-346.652-423.951-344.346-425.456-340.537-427.185z"/>
	<rect x="-319.417" y="-396.32" clip-path="url(#SVGID_2_)" width="213.646" height="41.085"/>
	<rect x="-360.026" y="-396.32" clip-path="url(#SVGID_2_)" fill="#F89823" width="40.609" height="41.085"/>
	<path clip-path="url(#SVGID_2_)" fill="#FFFFFF" d="M-305.703-382.482c-0.915,0-1.682-0.737-1.682-1.651s0.767-1.682,1.682-1.682
		c0.914,0,1.652,0.768,1.652,1.682S-304.789-382.482-305.703-382.482 M-307.031-380.706h2.625v14.07h-2.625V-380.706z"/>
	<path clip-path="url(#SVGID_2_)" fill="#FFFFFF" d="M-292.991-366.636v-9.587c0-1.445-0.619-2.418-2.153-2.418
		c-1.387,0-2.803,0.914-4.071,2.271v9.734h-2.625v-14.07h2.419v2.035c1.327-1.209,2.979-2.33,4.985-2.33
		c2.654,0,4.07,1.593,4.07,4.13v10.235H-292.991z"/>
	<path clip-path="url(#SVGID_2_)" fill="#FFFFFF" d="M-278.51-361.149v-7.109c-0.944,0.944-2.301,1.918-4.218,1.918
		c-3.038,0-5.545-2.213-5.545-6.932c0-5.133,2.831-7.61,6.902-7.61c2.124,0,3.628,0.324,5.486,0.885v18.466L-278.51-361.149z
		 M-278.51-378.14c-0.885-0.324-1.534-0.502-2.832-0.502c-2.743,0-4.277,1.652-4.277,5.251c0,3.098,1.386,4.719,3.274,4.719
		c1.475,0,2.773-0.973,3.835-2.3V-378.14z"/>
	<path clip-path="url(#SVGID_2_)" fill="#FFFFFF" d="M-264.543-366.636l0.012-2.035c-1.327,1.239-3.008,2.33-4.985,2.33
		c-2.684,0-4.07-1.593-4.07-4.129v-10.236h2.625v9.587c0,1.445,0.619,2.418,2.153,2.418c1.387,0,2.803-0.914,4.071-2.271v-9.734
		h2.625v14.07H-264.543z"/>
	<path clip-path="url(#SVGID_2_)" fill="#FFFFFF" d="M-258.221-382.482c-0.914,0-1.681-0.737-1.681-1.651s0.767-1.682,1.681-1.682
		c0.915,0,1.652,0.768,1.652,1.682S-257.306-382.482-258.221-382.482 M-259.548-380.706h2.625v14.07h-2.625V-380.706z"/>
	<path clip-path="url(#SVGID_2_)" fill="#FFFFFF" d="M-251.733-374.659v8.023h-2.625v-14.07h2.537v3.156
		c1.003-1.592,2.874-3.156,5.338-3.156v2.507C-248.812-378.081-250.789-376.517-251.733-374.659"/>
	<path clip-path="url(#SVGID_2_)" fill="#FFFFFF" d="M-242.877-382.482c-0.914,0-1.681-0.737-1.681-1.651s0.767-1.682,1.681-1.682
		c0.915,0,1.652,0.768,1.652,1.682S-241.962-382.482-242.877-382.482 M-244.204-380.706h2.625v14.07h-2.625V-380.706z"/>
	<path clip-path="url(#SVGID_2_)" fill="#FFFFFF" d="M-339.239-383.965c0.992,0,1.793-0.8,1.793-1.793
		c0-0.991-0.801-1.823-1.793-1.823c-0.993,0-1.825,0.832-1.825,1.823C-341.063-384.765-340.231-383.965-339.239-383.965"/>
	<path clip-path="url(#SVGID_2_)" fill="none" stroke="#FFFFFF" stroke-width="0.5" stroke-miterlimit="10" d="M-339.239-383.965
		c0.992,0,1.793-0.8,1.793-1.793c0-0.991-0.801-1.823-1.793-1.823c-0.993,0-1.825,0.832-1.825,1.823
		C-341.063-384.765-340.231-383.965-339.239-383.965z"/>
	<path clip-path="url(#SVGID_2_)" fill="#FFFFFF" d="M-340.537-377.479v-3.878h2.572l-0.011,5.575l-1.312,0.545
		c-3.01,1.248-4.354,2.271-4.354,4.32c0,1.953,1.569,3.073,3.714,3.073c2.496,0,4.481-1.12,6.274-2.593l0.416,2.946
		c-1.952,1.439-4.225,2.368-6.851,2.368c-3.905,0-6.563-2.177-6.563-5.667C-346.652-374.245-344.346-375.75-340.537-377.479"/>
	<path clip-path="url(#SVGID_2_)" fill="none" stroke="#FFFFFF" stroke-width="0.5" stroke-miterlimit="10" d="M-340.537-377.479
		v-3.878h2.572l-0.011,5.575l-1.312,0.545c-3.01,1.248-4.354,2.271-4.354,4.32c0,1.953,1.569,3.073,3.714,3.073
		c2.496,0,4.481-1.12,6.274-2.593l0.416,2.946c-1.952,1.439-4.225,2.368-6.851,2.368c-3.905,0-6.563-2.177-6.563-5.667
		C-346.652-374.245-344.346-375.75-340.537-377.479z"/>
	<rect x="-319.417" y="-347.208" clip-path="url(#SVGID_2_)" width="213.646" height="41.085"/>
	<rect x="-360.026" y="-347.208" clip-path="url(#SVGID_2_)" fill="#167FAA" width="40.609" height="41.085"/>
	<path clip-path="url(#SVGID_2_)" fill="#FFFFFF" d="M-305.703-333.37c-0.915,0-1.682-0.737-1.682-1.651s0.767-1.682,1.682-1.682
		c0.914,0,1.652,0.768,1.652,1.682S-304.789-333.37-305.703-333.37 M-307.031-331.594h2.625v14.069h-2.625V-331.594z"/>
	<path clip-path="url(#SVGID_2_)" fill="#FFFFFF" d="M-292.991-317.523v-9.587c0-1.445-0.619-2.418-2.153-2.418
		c-1.387,0-2.803,0.914-4.071,2.271v9.734h-2.625v-14.07h2.419v2.035c1.327-1.209,2.979-2.33,4.985-2.33
		c2.654,0,4.07,1.593,4.07,4.13v10.235H-292.991z"/>
	<path clip-path="url(#SVGID_2_)" fill="#FFFFFF" d="M-278.51-312.037v-7.109c-0.944,0.944-2.301,1.918-4.218,1.918
		c-3.038,0-5.545-2.213-5.545-6.932c0-5.133,2.831-7.61,6.902-7.61c2.124,0,3.628,0.324,5.486,0.884v18.467L-278.51-312.037z
		 M-278.51-329.027c-0.885-0.324-1.534-0.502-2.832-0.502c-2.743,0-4.277,1.652-4.277,5.251c0,3.097,1.386,4.719,3.274,4.719
		c1.475,0,2.773-0.973,3.835-2.3V-329.027z"/>
	<path clip-path="url(#SVGID_2_)" fill="#FFFFFF" d="M-264.543-317.523l0.012-2.035c-1.327,1.239-3.008,2.33-4.985,2.33
		c-2.684,0-4.07-1.593-4.07-4.129v-10.236h2.625v9.587c0,1.445,0.619,2.418,2.153,2.418c1.387,0,2.803-0.914,4.071-2.271v-9.734
		h2.625v14.07H-264.543z"/>
	<path clip-path="url(#SVGID_2_)" fill="#FFFFFF" d="M-258.221-333.37c-0.914,0-1.681-0.737-1.681-1.651s0.767-1.682,1.681-1.682
		c0.915,0,1.652,0.768,1.652,1.682S-257.306-333.37-258.221-333.37 M-259.548-331.594h2.625v14.069h-2.625V-331.594z"/>
	<path clip-path="url(#SVGID_2_)" fill="#FFFFFF" d="M-251.733-325.547v8.023h-2.625v-14.07h2.537v3.156
		c1.003-1.593,2.874-3.156,5.338-3.156v2.507C-248.812-328.969-250.789-327.405-251.733-325.547"/>
	<path clip-path="url(#SVGID_2_)" fill="#FFFFFF" d="M-242.877-333.37c-0.914,0-1.681-0.737-1.681-1.651s0.767-1.682,1.681-1.682
		c0.915,0,1.652,0.768,1.652,1.682S-241.962-333.37-242.877-333.37 M-244.204-331.594h2.625v14.069h-2.625V-331.594z"/>
	<path clip-path="url(#SVGID_2_)" fill="#FFFFFF" d="M-339.239-334.853c0.992,0,1.793-0.8,1.793-1.793
		c0-0.992-0.801-1.824-1.793-1.824c-0.993,0-1.825,0.832-1.825,1.824C-341.063-335.652-340.231-334.853-339.239-334.853"/>
	<path clip-path="url(#SVGID_2_)" fill="none" stroke="#FFFFFF" stroke-width="0.5" stroke-miterlimit="10" d="M-339.239-334.853
		c0.992,0,1.793-0.8,1.793-1.793c0-0.992-0.801-1.824-1.793-1.824c-0.993,0-1.825,0.832-1.825,1.824
		C-341.063-335.652-340.231-334.853-339.239-334.853z"/>
	<path clip-path="url(#SVGID_2_)" fill="#FFFFFF" d="M-340.537-328.366v-3.878h2.572l-0.011,5.574l-1.312,0.545
		c-3.01,1.248-4.354,2.272-4.354,4.321c0,1.953,1.569,3.073,3.714,3.073c2.496,0,4.481-1.12,6.274-2.593l0.416,2.945
		c-1.952,1.44-4.225,2.369-6.851,2.369c-3.905,0-6.563-2.177-6.563-5.667C-346.652-325.133-344.346-326.638-340.537-328.366"/>
	<path clip-path="url(#SVGID_2_)" fill="none" stroke="#FFFFFF" stroke-width="0.5" stroke-miterlimit="10" d="M-340.537-328.366
		v-3.878h2.572l-0.011,5.574l-1.312,0.545c-3.01,1.248-4.354,2.272-4.354,4.321c0,1.953,1.569,3.073,3.714,3.073
		c2.496,0,4.481-1.12,6.274-2.593l0.416,2.945c-1.952,1.44-4.225,2.369-6.851,2.369c-3.905,0-6.563-2.177-6.563-5.667
		C-346.652-325.133-344.346-326.638-340.537-328.366z"/>
	<rect x="-36.701" y="-453.979" clip-path="url(#SVGID_2_)" width="213.646" height="41.085"/>
	<rect x="-77.309" y="-453.979" clip-path="url(#SVGID_2_)" fill="#7ED0E1" width="40.608" height="41.085"/>
	<path clip-path="url(#SVGID_2_)" fill="#FFFFFF" d="M-22.987-440.141c-0.915,0-1.681-0.737-1.681-1.651
		c0-0.915,0.766-1.682,1.681-1.682c0.914,0,1.652,0.767,1.652,1.682C-21.335-440.878-22.073-440.141-22.987-440.141
		 M-24.314-438.364h2.625v14.07h-2.625V-438.364z"/>
	<path clip-path="url(#SVGID_2_)" fill="#FFFFFF" d="M-10.274-424.294v-9.587c0-1.445-0.619-2.418-2.153-2.418
		c-1.387,0-2.803,0.914-4.071,2.271v9.734h-2.625v-14.07h2.419v2.035c1.327-1.209,2.979-2.33,4.985-2.33
		c2.654,0,4.07,1.593,4.07,4.13v10.235H-10.274z"/>
	<path clip-path="url(#SVGID_2_)" fill="#FFFFFF" d="M4.206-418.808v-7.109c-0.944,0.944-2.301,1.918-4.218,1.918
		c-3.038,0-5.545-2.213-5.545-6.932c0-5.134,2.831-7.61,6.901-7.61c2.124,0,3.628,0.324,5.486,0.884v18.466L4.206-418.808z
		 M4.206-435.798c-0.885-0.324-1.534-0.502-2.832-0.502c-2.743,0-4.277,1.651-4.277,5.251c0,3.097,1.387,4.719,3.274,4.719
		c1.475,0,2.772-0.973,3.835-2.3V-435.798z"/>
	<path clip-path="url(#SVGID_2_)" fill="#FFFFFF" d="M18.173-424.294l0.012-2.035c-1.327,1.239-3.008,2.33-4.984,2.33
		c-2.685,0-4.07-1.593-4.07-4.129v-10.236h2.625v9.587c0,1.445,0.619,2.418,2.153,2.418c1.387,0,2.803-0.914,4.07-2.271v-9.734
		h2.625v14.07H18.173z"/>
	<path clip-path="url(#SVGID_2_)" fill="#FFFFFF" d="M24.495-440.141c-0.914,0-1.682-0.737-1.682-1.651
		c0-0.915,0.768-1.682,1.682-1.682c0.915,0,1.652,0.767,1.652,1.682C26.147-440.878,25.41-440.141,24.495-440.141 M23.168-438.364
		h2.625v14.07h-2.625V-438.364z"/>
	<path clip-path="url(#SVGID_2_)" fill="#FFFFFF" d="M30.983-432.317v8.022h-2.625v-14.069h2.537v3.155
		c1.003-1.592,2.874-3.155,5.338-3.155v2.507C33.903-435.739,31.928-434.176,30.983-432.317"/>
	<path clip-path="url(#SVGID_2_)" fill="#FFFFFF" d="M39.84-440.141c-0.915,0-1.682-0.737-1.682-1.651
		c0-0.915,0.767-1.682,1.682-1.682c0.914,0,1.651,0.767,1.651,1.682C41.491-440.878,40.754-440.141,39.84-440.141 M38.512-438.364
		h2.625v14.07h-2.625V-438.364z"/>
	<path clip-path="url(#SVGID_2_)" fill="#FFFFFF" d="M-56.522-441.623c0.992,0,1.793-0.8,1.793-1.793
		c0-0.992-0.801-1.824-1.793-1.824c-0.993,0-1.825,0.832-1.825,1.824C-58.348-442.423-57.516-441.623-56.522-441.623"/>
	<path clip-path="url(#SVGID_2_)" fill="none" stroke="#FFFFFF" stroke-width="0.5" stroke-miterlimit="10" d="M-56.522-441.623
		c0.992,0,1.793-0.8,1.793-1.793c0-0.992-0.801-1.824-1.793-1.824c-0.993,0-1.825,0.832-1.825,1.824
		C-58.348-442.423-57.516-441.623-56.522-441.623z"/>
	<path clip-path="url(#SVGID_2_)" fill="#FFFFFF" d="M-57.82-435.137v-3.879h2.572l-0.012,5.575l-1.312,0.545
		c-3.01,1.248-4.354,2.272-4.354,4.321c0,1.953,1.569,3.073,3.714,3.073c2.496,0,4.481-1.12,6.274-2.593l0.416,2.945
		c-1.952,1.44-4.225,2.369-6.851,2.369c-3.905,0-6.563-2.177-6.563-5.667C-63.936-431.903-61.63-433.408-57.82-435.137"/>
	<path clip-path="url(#SVGID_2_)" fill="none" stroke="#FFFFFF" stroke-width="0.5" stroke-miterlimit="10" d="M-57.82-435.137
		v-3.879h2.572l-0.012,5.575l-1.312,0.545c-3.01,1.248-4.354,2.272-4.354,4.321c0,1.953,1.569,3.073,3.714,3.073
		c2.496,0,4.481-1.12,6.274-2.593l0.416,2.945c-1.952,1.44-4.225,2.369-6.851,2.369c-3.905,0-6.563-2.177-6.563-5.667
		C-63.936-431.903-61.63-433.408-57.82-435.137z"/>
	<rect x="-36.701" y="-399.344" clip-path="url(#SVGID_2_)" width="213.646" height="41.085"/>
	<rect x="-77.309" y="-399.344" clip-path="url(#SVGID_2_)" fill="#5DC4B8" width="40.608" height="41.085"/>
	<path clip-path="url(#SVGID_2_)" fill="#FFFFFF" d="M-22.987-385.506c-0.915,0-1.681-0.738-1.681-1.652s0.766-1.681,1.681-1.681
		c0.914,0,1.652,0.767,1.652,1.681S-22.073-385.506-22.987-385.506 M-24.314-383.729h2.625v14.069h-2.625V-383.729z"/>
	<path clip-path="url(#SVGID_2_)" fill="#FFFFFF" d="M-10.274-369.66v-9.587c0-1.444-0.619-2.418-2.153-2.418
		c-1.387,0-2.803,0.914-4.071,2.271v9.733h-2.625v-14.069h2.419v2.035c1.327-1.209,2.979-2.33,4.985-2.33
		c2.654,0,4.07,1.593,4.07,4.13v10.234H-10.274z"/>
	<path clip-path="url(#SVGID_2_)" fill="#FFFFFF" d="M4.206-364.174v-7.108c-0.944,0.943-2.301,1.918-4.218,1.918
		c-3.038,0-5.545-2.213-5.545-6.933c0-5.133,2.831-7.609,6.901-7.609c2.124,0,3.628,0.324,5.486,0.884v18.466L4.206-364.174z
		 M4.206-381.163c-0.885-0.324-1.534-0.502-2.832-0.502c-2.743,0-4.277,1.651-4.277,5.251c0,3.097,1.387,4.719,3.274,4.719
		c1.475,0,2.772-0.973,3.835-2.3V-381.163z"/>
	<path clip-path="url(#SVGID_2_)" fill="#FFFFFF" d="M18.173-369.66l0.012-2.034c-1.327,1.238-3.008,2.329-4.984,2.329
		c-2.685,0-4.07-1.593-4.07-4.129v-10.235h2.625v9.587c0,1.444,0.619,2.418,2.153,2.418c1.387,0,2.803-0.914,4.07-2.271v-9.733
		h2.625v14.069H18.173z"/>
	<path clip-path="url(#SVGID_2_)" fill="#FFFFFF" d="M24.495-385.506c-0.914,0-1.682-0.738-1.682-1.652s0.768-1.681,1.682-1.681
		c0.915,0,1.652,0.767,1.652,1.681S25.41-385.506,24.495-385.506 M23.168-383.729h2.625v14.069h-2.625V-383.729z"/>
	<path clip-path="url(#SVGID_2_)" fill="#FFFFFF" d="M30.983-377.683v8.022h-2.625v-14.07h2.537v3.156
		c1.003-1.592,2.874-3.156,5.338-3.156v2.508C33.903-381.105,31.928-379.541,30.983-377.683"/>
	<path clip-path="url(#SVGID_2_)" fill="#FFFFFF" d="M39.84-385.506c-0.915,0-1.682-0.738-1.682-1.652s0.767-1.681,1.682-1.681
		c0.914,0,1.651,0.767,1.651,1.681S40.754-385.506,39.84-385.506 M38.512-383.729h2.625v14.069h-2.625V-383.729z"/>
	<path clip-path="url(#SVGID_2_)" fill="#FFFFFF" d="M-56.522-386.988c0.992,0,1.793-0.8,1.793-1.793
		c0-0.992-0.801-1.824-1.793-1.824c-0.993,0-1.825,0.832-1.825,1.824C-58.348-387.788-57.516-386.988-56.522-386.988"/>
	<path clip-path="url(#SVGID_2_)" fill="none" stroke="#FFFFFF" stroke-width="0.5" stroke-miterlimit="10" d="M-56.522-386.988
		c0.992,0,1.793-0.8,1.793-1.793c0-0.992-0.801-1.824-1.793-1.824c-0.993,0-1.825,0.832-1.825,1.824
		C-58.348-387.788-57.516-386.988-56.522-386.988z"/>
	<path clip-path="url(#SVGID_2_)" fill="#FFFFFF" d="M-57.82-380.503v-3.878h2.572l-0.012,5.575l-1.312,0.545
		c-3.01,1.248-4.354,2.272-4.354,4.321c0,1.953,1.569,3.073,3.714,3.073c2.496,0,4.481-1.12,6.274-2.594l0.416,2.946
		c-1.952,1.44-4.225,2.369-6.851,2.369c-3.905,0-6.563-2.177-6.563-5.667C-63.936-377.269-61.63-378.773-57.82-380.503"/>
	<path clip-path="url(#SVGID_2_)" fill="none" stroke="#FFFFFF" stroke-width="0.5" stroke-miterlimit="10" d="M-57.82-380.503
		v-3.878h2.572l-0.012,5.575l-1.312,0.545c-3.01,1.248-4.354,2.272-4.354,4.321c0,1.953,1.569,3.073,3.714,3.073
		c2.496,0,4.481-1.12,6.274-2.594l0.416,2.946c-1.952,1.44-4.225,2.369-6.851,2.369c-3.905,0-6.563-2.177-6.563-5.667
		C-63.936-377.269-61.63-378.773-57.82-380.503z"/>
	<rect x="-36.701" y="-294.541" clip-path="url(#SVGID_2_)" width="213.646" height="41.085"/>
	<rect x="-77.309" y="-294.541" clip-path="url(#SVGID_2_)" fill="#EE2A7B" width="40.608" height="41.085"/>
	<path clip-path="url(#SVGID_2_)" fill="#FFFFFF" d="M-22.987-280.703c-0.915,0-1.681-0.738-1.681-1.651
		c0-0.914,0.766-1.682,1.681-1.682c0.914,0,1.652,0.768,1.652,1.682C-21.335-281.441-22.073-280.703-22.987-280.703
		 M-24.314-278.927h2.625v14.069h-2.625V-278.927z"/>
	<path clip-path="url(#SVGID_2_)" fill="#FFFFFF" d="M-10.274-264.857v-9.587c0-1.444-0.619-2.418-2.153-2.418
		c-1.387,0-2.803,0.914-4.071,2.271v9.733h-2.625v-14.069h2.419v2.035c1.327-1.209,2.979-2.33,4.985-2.33
		c2.654,0,4.07,1.593,4.07,4.13v10.234H-10.274z"/>
	<path clip-path="url(#SVGID_2_)" fill="#FFFFFF" d="M4.206-259.37v-7.109c-0.944,0.944-2.301,1.918-4.218,1.918
		c-3.038,0-5.545-2.213-5.545-6.932c0-5.134,2.831-7.61,6.901-7.61c2.124,0,3.628,0.324,5.486,0.884v18.466L4.206-259.37z
		 M4.206-276.36c-0.885-0.324-1.534-0.502-2.832-0.502c-2.743,0-4.277,1.651-4.277,5.251c0,3.097,1.387,4.719,3.274,4.719
		c1.475,0,2.772-0.973,3.835-2.3V-276.36z"/>
	<path clip-path="url(#SVGID_2_)" fill="#FFFFFF" d="M18.173-264.857l0.012-2.034c-1.327,1.238-3.008,2.33-4.984,2.33
		c-2.685,0-4.07-1.594-4.07-4.13v-10.235h2.625v9.587c0,1.445,0.619,2.418,2.153,2.418c1.387,0,2.803-0.914,4.07-2.271v-9.733h2.625
		v14.069H18.173z"/>
	<path clip-path="url(#SVGID_2_)" fill="#FFFFFF" d="M24.495-280.703c-0.914,0-1.682-0.738-1.682-1.651
		c0-0.914,0.768-1.682,1.682-1.682c0.915,0,1.652,0.768,1.652,1.682C26.147-281.441,25.41-280.703,24.495-280.703 M23.168-278.927
		h2.625v14.069h-2.625V-278.927z"/>
	<path clip-path="url(#SVGID_2_)" fill="#FFFFFF" d="M30.983-272.88v8.022h-2.625v-14.069h2.537v3.155
		c1.003-1.592,2.874-3.155,5.338-3.155v2.507C33.903-276.302,31.928-274.738,30.983-272.88"/>
	<path clip-path="url(#SVGID_2_)" fill="#FFFFFF" d="M39.84-280.703c-0.915,0-1.682-0.738-1.682-1.651
		c0-0.914,0.767-1.682,1.682-1.682c0.914,0,1.651,0.768,1.651,1.682C41.491-281.441,40.754-280.703,39.84-280.703 M38.512-278.927
		h2.625v14.069h-2.625V-278.927z"/>
	<path clip-path="url(#SVGID_2_)" fill="#FFFFFF" d="M-56.522-282.186c0.992,0,1.793-0.8,1.793-1.793
		c0-0.992-0.801-1.824-1.793-1.824c-0.993,0-1.825,0.832-1.825,1.824C-58.348-282.985-57.516-282.186-56.522-282.186"/>
	<path clip-path="url(#SVGID_2_)" fill="none" stroke="#FFFFFF" stroke-width="0.5" stroke-miterlimit="10" d="M-56.522-282.186
		c0.992,0,1.793-0.8,1.793-1.793c0-0.992-0.801-1.824-1.793-1.824c-0.993,0-1.825,0.832-1.825,1.824
		C-58.348-282.985-57.516-282.186-56.522-282.186z"/>
	<path clip-path="url(#SVGID_2_)" fill="#FFFFFF" d="M-57.82-275.7v-3.878h2.572l-0.012,5.575l-1.312,0.545
		c-3.01,1.248-4.354,2.272-4.354,4.321c0,1.953,1.569,3.073,3.714,3.073c2.496,0,4.481-1.12,6.274-2.594l0.416,2.946
		c-1.952,1.44-4.225,2.369-6.851,2.369c-3.905,0-6.563-2.177-6.563-5.667C-63.936-272.466-61.63-273.971-57.82-275.7"/>
	<path clip-path="url(#SVGID_2_)" fill="none" stroke="#FFFFFF" stroke-width="0.5" stroke-miterlimit="10" d="M-57.82-275.7v-3.878
		h2.572l-0.012,5.575l-1.312,0.545c-3.01,1.248-4.354,2.272-4.354,4.321c0,1.953,1.569,3.073,3.714,3.073
		c2.496,0,4.481-1.12,6.274-2.594l0.416,2.946c-1.952,1.44-4.225,2.369-6.851,2.369c-3.905,0-6.563-2.177-6.563-5.667
		C-63.936-272.466-61.63-273.971-57.82-275.7z"/>
</g>
<rect x="45.299" y="54.792" width="213.646" height="41.085"/>
<rect x="4.691" y="54.792" fill="#FFD200" width="40.608" height="41.085"/>
<path fill="#FFFFFF" d="M59.013,68.63c-0.915,0-1.681-0.737-1.681-1.651s0.766-1.682,1.681-1.682c0.914,0,1.652,0.768,1.652,1.682
	S59.927,68.63,59.013,68.63 M57.686,70.406h2.625v14.069h-2.625V70.406z"/>
<path fill="#FFFFFF" d="M71.726,84.477V74.89c0-1.445-0.619-2.418-2.153-2.418c-1.387,0-2.803,0.914-4.071,2.271v9.734h-2.625
	v-14.07h2.419v2.035c1.327-1.209,2.979-2.33,4.985-2.33c2.654,0,4.07,1.593,4.07,4.13v10.235H71.726z"/>
<path fill="#FFFFFF" d="M86.206,89.963v-7.109c-0.944,0.944-2.301,1.918-4.218,1.918c-3.038,0-5.545-2.213-5.545-6.932
	c0-5.133,2.831-7.61,6.901-7.61c2.124,0,3.628,0.324,5.486,0.884V89.58L86.206,89.963z M86.206,72.973
	c-0.885-0.324-1.534-0.502-2.832-0.502c-2.743,0-4.277,1.652-4.277,5.251c0,3.097,1.387,4.719,3.274,4.719
	c1.475,0,2.772-0.973,3.835-2.3V72.973z"/>
<path fill="#FFFFFF" d="M100.173,84.477l0.012-2.035c-1.327,1.239-3.008,2.33-4.984,2.33c-2.685,0-4.07-1.593-4.07-4.129V70.406
	h2.625v9.587c0,1.445,0.619,2.418,2.153,2.418c1.387,0,2.803-0.914,4.07-2.271v-9.734h2.625v14.07H100.173z"/>
<path fill="#FFFFFF" d="M106.495,68.63c-0.914,0-1.682-0.737-1.682-1.651s0.768-1.682,1.682-1.682c0.915,0,1.652,0.768,1.652,1.682
	S107.41,68.63,106.495,68.63 M105.168,70.406h2.625v14.069h-2.625V70.406z"/>
<path fill="#FFFFFF" d="M112.983,76.453v8.023h-2.625v-14.07h2.537v3.156c1.003-1.593,2.874-3.156,5.338-3.156v2.507
	C115.903,73.031,113.928,74.595,112.983,76.453"/>
<path fill="#FFFFFF" d="M121.84,68.63c-0.915,0-1.682-0.737-1.682-1.651s0.767-1.682,1.682-1.682c0.914,0,1.651,0.768,1.651,1.682
	S122.754,68.63,121.84,68.63 M120.512,70.406h2.625v14.069h-2.625V70.406z"/>
<path fill="#FFFFFF" d="M25.478,67.147c0.992,0,1.793-0.8,1.793-1.793c0-0.992-0.801-1.824-1.793-1.824
	c-0.993,0-1.825,0.832-1.825,1.824C23.652,66.348,24.484,67.147,25.478,67.147"/>
<path fill="none" stroke="#FFFFFF" stroke-width="0.5" stroke-miterlimit="10" d="M25.478,67.147c0.992,0,1.793-0.8,1.793-1.793
	c0-0.992-0.801-1.824-1.793-1.824c-0.993,0-1.825,0.832-1.825,1.824C23.652,66.348,24.484,67.147,25.478,67.147z"/>
<path fill="#FFFFFF" d="M24.18,73.634v-3.878h2.572L26.74,75.33l-1.312,0.545c-3.01,1.248-4.354,2.272-4.354,4.321
	c0,1.953,1.569,3.073,3.714,3.073c2.496,0,4.481-1.12,6.274-2.593l0.416,2.945c-1.952,1.44-4.225,2.369-6.851,2.369
	c-3.905,0-6.563-2.177-6.563-5.667C18.064,76.867,20.37,75.362,24.18,73.634"/>
<path fill="none" stroke="#FFFFFF" stroke-width="0.5" stroke-miterlimit="10" d="M24.18,73.634v-3.878h2.572L26.74,75.33
	l-1.312,0.545c-3.01,1.248-4.354,2.272-4.354,4.321c0,1.953,1.569,3.073,3.714,3.073c2.496,0,4.481-1.12,6.274-2.593l0.416,2.945
	c-1.952,1.44-4.225,2.369-6.851,2.369c-3.905,0-6.563-2.177-6.563-5.667C18.064,76.867,20.37,75.362,24.18,73.634z"/>
<line fill="none" x1="296.96" y1="-596.668" x2="296.96" y2="195.332"/>
<g>
	<path fill="#FFFFFF" d="M25.741,17.006c1.041,0,1.883-0.839,1.883-1.883c0-1.042-0.842-1.915-1.883-1.915
		c-1.043,0-1.916,0.873-1.916,1.915C23.825,16.167,24.698,17.006,25.741,17.006"/>
	<path fill="none" stroke="#FFFFFF" stroke-width="0.5" stroke-miterlimit="10" d="M25.741,17.006c1.041,0,1.883-0.839,1.883-1.883
		c0-1.042-0.842-1.915-1.883-1.915c-1.043,0-1.916,0.873-1.916,1.915C23.825,16.167,24.698,17.006,25.741,17.006z"/>
	<path fill="#FFFFFF" d="M24.378,23.816v-4.071h2.701l-0.012,5.854l-1.377,0.572c-3.16,1.311-4.572,2.385-4.572,4.536
		c0,2.051,1.646,3.228,3.898,3.228c2.621,0,4.707-1.177,6.588-2.724l0.438,3.093c-2.049,1.514-4.436,2.488-7.193,2.488
		c-4.1,0-6.891-2.285-6.891-5.95C17.958,27.212,20.378,25.631,24.378,23.816"/>
	<path fill="none" stroke="#FFFFFF" stroke-width="0.5" stroke-miterlimit="10" d="M24.378,23.816v-4.071h2.701l-0.012,5.854
		l-1.377,0.572c-3.16,1.311-4.572,2.385-4.572,4.536c0,2.051,1.646,3.228,3.898,3.228c2.621,0,4.707-1.177,6.588-2.724l0.438,3.093
		c-2.049,1.514-4.436,2.488-7.193,2.488c-4.1,0-6.891-2.285-6.891-5.95C17.958,27.212,20.378,25.631,24.378,23.816z"/>
</g>
</svg>
