<?xml version="1.0" encoding="utf-8"?>
<!-- Generator: Adobe Illustrator 16.0.4, SVG Export Plug-In . SVG Version: 6.00 Build 0)  -->
<!DOCTYPE svg PUBLIC "-//W3C//DTD SVG 1.1//EN" "http://www.w3.org/Graphics/SVG/1.1/DTD/svg11.dtd">
<svg version="1.1" id="Layer_1" xmlns="http://www.w3.org/2000/svg" xmlns:xlink="http://www.w3.org/1999/xlink" x="0px" y="0px"
	 width="24.036px" height="16.863px" viewBox="0 0 24.036 16.863" enable-background="new 0 0 24.036 16.863" xml:space="preserve">
<g>
	<defs>
		<rect id="SVGID_1_" x="-557" y="-4725.494" width="1170" height="4709.69"/>
	</defs>
	<clipPath id="SVGID_2_">
		<use xlink:href="#SVGID_1_"  overflow="visible"/>
	</clipPath>
	<g clip-path="url(#SVGID_2_)">
		<defs>
			<rect id="SVGID_195_" x="-557" y="-4725.49" width="1170" height="4709.686"/>
		</defs>
		<clipPath id="SVGID_4_">
			<use xlink:href="#SVGID_195_"  overflow="visible"/>
		</clipPath>
		<path clip-path="url(#SVGID_4_)" fill="#677171" d="M18.122,14.186C18.041,14.073,18,13.967,18,13.87
			c0-0.098,0.041-0.203,0.122-0.316L28.185,3.492c0.21-0.211,0.421-0.211,0.631,0l10.063,10.062c0.21,0.211,0.21,0.422,0,0.632
			l-3.063,3.063c-0.21,0.21-0.421,0.21-0.632,0L28.5,10.563l-6.685,6.686c-0.21,0.21-0.421,0.21-0.631,0L18.122,14.186z"/>
	</g>
</g>
<path fill="#677171" d="M1.622,12.247C1.541,12.135,1.5,12.028,1.5,11.932c0-0.098,0.041-0.203,0.122-0.316L11.685,1.554
	c0.21-0.211,0.421-0.211,0.631,0l10.063,10.062c0.21,0.211,0.21,0.422,0,0.632l-3.063,3.063c-0.21,0.21-0.421,0.21-0.632,0L12,8.625
	l-6.685,6.686c-0.21,0.21-0.421,0.21-0.631,0L1.622,12.247z"/>
</svg>
